<mxfile host="Electron" modified="2023-07-23T11:40:46.136Z" agent="Mozilla/5.0 (Windows NT 10.0; Win64; x64) AppleWebKit/537.36 (KHTML, like Gecko) draw.io/21.6.5 Chrome/114.0.5735.243 Electron/25.3.1 Safari/537.36" etag="SntO6Z5icFo26Pnqhpfd" version="21.6.5" type="device">
  <diagram name="第 1 页" id="A7PMZ04ht-ZbkIiVRqGB">
    <mxGraphModel dx="4844" dy="2132" grid="1" gridSize="10" guides="1" tooltips="1" connect="1" arrows="1" fold="1" page="1" pageScale="1" pageWidth="827" pageHeight="1169" math="0" shadow="0">
      <root>
        <mxCell id="0" />
        <mxCell id="1" parent="0" />
        <mxCell id="-d9L37czDho2xnpMNs8O-2" value="RocketMq" style="ellipse;whiteSpace=wrap;html=1;" vertex="1" parent="1">
          <mxGeometry x="370" y="560" width="120" height="80" as="geometry" />
        </mxCell>
        <mxCell id="-d9L37czDho2xnpMNs8O-3" value="作用" style="rounded=0;whiteSpace=wrap;html=1;" vertex="1" parent="1">
          <mxGeometry x="260" y="1450" width="120" height="60" as="geometry" />
        </mxCell>
        <mxCell id="-d9L37czDho2xnpMNs8O-4" value="限流削峰" style="ellipse;whiteSpace=wrap;html=1;" vertex="1" parent="1">
          <mxGeometry x="40" y="1670" width="120" height="80" as="geometry" />
        </mxCell>
        <mxCell id="-d9L37czDho2xnpMNs8O-5" value="异步" style="ellipse;whiteSpace=wrap;html=1;" vertex="1" parent="1">
          <mxGeometry x="310" y="1700" width="120" height="80" as="geometry" />
        </mxCell>
        <mxCell id="-d9L37czDho2xnpMNs8O-6" value="数据收集" style="ellipse;whiteSpace=wrap;html=1;" vertex="1" parent="1">
          <mxGeometry x="590" y="1700" width="120" height="80" as="geometry" />
        </mxCell>
        <mxCell id="-d9L37czDho2xnpMNs8O-8" value="" style="endArrow=none;html=1;entryX=0.5;entryY=1;entryDx=0;entryDy=0;exitX=0.5;exitY=0;exitDx=0;exitDy=0;curved=1;fontStyle=1" edge="1" parent="1" source="-d9L37czDho2xnpMNs8O-3" target="-d9L37czDho2xnpMNs8O-2">
          <mxGeometry width="50" height="50" relative="1" as="geometry">
            <mxPoint x="580" y="700" as="sourcePoint" />
            <mxPoint x="620" y="400" as="targetPoint" />
            <Array as="points">
              <mxPoint x="410" y="860" />
              <mxPoint x="430" y="800" />
            </Array>
          </mxGeometry>
        </mxCell>
        <mxCell id="-d9L37czDho2xnpMNs8O-9" value="" style="endArrow=none;html=1;entryX=-0.017;entryY=0.367;entryDx=0;entryDy=0;exitX=0.5;exitY=0;exitDx=0;exitDy=0;curved=1;fontStyle=1;entryPerimeter=0;" edge="1" parent="1" source="-d9L37czDho2xnpMNs8O-4" target="-d9L37czDho2xnpMNs8O-3">
          <mxGeometry width="50" height="50" relative="1" as="geometry">
            <mxPoint x="430" y="1470" as="sourcePoint" />
            <mxPoint x="430" y="1370" as="targetPoint" />
            <Array as="points">
              <mxPoint x="290" y="1530" />
            </Array>
          </mxGeometry>
        </mxCell>
        <mxCell id="-d9L37czDho2xnpMNs8O-10" value="" style="endArrow=none;html=1;entryX=0.5;entryY=1;entryDx=0;entryDy=0;curved=1;fontStyle=1;exitX=0.5;exitY=0;exitDx=0;exitDy=0;" edge="1" parent="1" source="-d9L37czDho2xnpMNs8O-5" target="-d9L37czDho2xnpMNs8O-3">
          <mxGeometry width="50" height="50" relative="1" as="geometry">
            <mxPoint x="514" y="1960" as="sourcePoint" />
            <mxPoint x="514" y="1841.98" as="targetPoint" />
            <Array as="points">
              <mxPoint x="400" y="1690" />
            </Array>
          </mxGeometry>
        </mxCell>
        <mxCell id="-d9L37czDho2xnpMNs8O-11" value="" style="endArrow=none;html=1;entryX=1;entryY=0.5;entryDx=0;entryDy=0;curved=1;fontStyle=1;exitX=0.392;exitY=-0.025;exitDx=0;exitDy=0;exitPerimeter=0;" edge="1" parent="1" source="-d9L37czDho2xnpMNs8O-6" target="-d9L37czDho2xnpMNs8O-3">
          <mxGeometry width="50" height="50" relative="1" as="geometry">
            <mxPoint x="424" y="1680" as="sourcePoint" />
            <mxPoint x="430" y="1530" as="targetPoint" />
            <Array as="points">
              <mxPoint x="620" y="1630" />
            </Array>
          </mxGeometry>
        </mxCell>
        <mxCell id="-d9L37czDho2xnpMNs8O-19" style="edgeStyle=orthogonalEdgeStyle;orthogonalLoop=1;jettySize=auto;html=1;exitX=0.5;exitY=0;exitDx=0;exitDy=0;entryX=0.5;entryY=1;entryDx=0;entryDy=0;strokeColor=default;curved=1;startArrow=none;startFill=0;" edge="1" parent="1" source="-d9L37czDho2xnpMNs8O-13" target="-d9L37czDho2xnpMNs8O-14">
          <mxGeometry relative="1" as="geometry" />
        </mxCell>
        <mxCell id="-d9L37czDho2xnpMNs8O-24" style="edgeStyle=orthogonalEdgeStyle;shape=connector;curved=1;rounded=1;orthogonalLoop=1;jettySize=auto;html=1;exitX=0.5;exitY=1;exitDx=0;exitDy=0;entryX=0.5;entryY=0;entryDx=0;entryDy=0;labelBackgroundColor=default;strokeColor=default;fontFamily=Helvetica;fontSize=11;fontColor=default;startArrow=none;startFill=0;endArrow=classic;" edge="1" parent="1" source="-d9L37czDho2xnpMNs8O-13" target="-d9L37czDho2xnpMNs8O-2">
          <mxGeometry relative="1" as="geometry" />
        </mxCell>
        <mxCell id="-d9L37czDho2xnpMNs8O-13" value="MQ" style="ellipse;whiteSpace=wrap;html=1;" vertex="1" parent="1">
          <mxGeometry x="370" y="200" width="120" height="80" as="geometry" />
        </mxCell>
        <mxCell id="-d9L37czDho2xnpMNs8O-20" style="edgeStyle=orthogonalEdgeStyle;shape=connector;curved=1;rounded=1;orthogonalLoop=1;jettySize=auto;html=1;exitX=0;exitY=0.5;exitDx=0;exitDy=0;entryX=0.45;entryY=1;entryDx=0;entryDy=0;entryPerimeter=0;labelBackgroundColor=default;strokeColor=default;fontFamily=Helvetica;fontSize=11;fontColor=default;startArrow=none;startFill=0;endArrow=classic;" edge="1" parent="1" source="-d9L37czDho2xnpMNs8O-14" target="-d9L37czDho2xnpMNs8O-15">
          <mxGeometry relative="1" as="geometry" />
        </mxCell>
        <mxCell id="-d9L37czDho2xnpMNs8O-21" style="edgeStyle=orthogonalEdgeStyle;shape=connector;curved=1;rounded=1;orthogonalLoop=1;jettySize=auto;html=1;exitX=0.25;exitY=0;exitDx=0;exitDy=0;entryX=0.5;entryY=1;entryDx=0;entryDy=0;labelBackgroundColor=default;strokeColor=default;fontFamily=Helvetica;fontSize=11;fontColor=default;startArrow=none;startFill=0;endArrow=classic;" edge="1" parent="1" source="-d9L37czDho2xnpMNs8O-14" target="-d9L37czDho2xnpMNs8O-16">
          <mxGeometry relative="1" as="geometry" />
        </mxCell>
        <mxCell id="-d9L37czDho2xnpMNs8O-22" style="edgeStyle=orthogonalEdgeStyle;shape=connector;curved=1;rounded=1;orthogonalLoop=1;jettySize=auto;html=1;exitX=0.75;exitY=0;exitDx=0;exitDy=0;entryX=0.5;entryY=1;entryDx=0;entryDy=0;labelBackgroundColor=default;strokeColor=default;fontFamily=Helvetica;fontSize=11;fontColor=default;startArrow=none;startFill=0;endArrow=classic;" edge="1" parent="1" source="-d9L37czDho2xnpMNs8O-14" target="-d9L37czDho2xnpMNs8O-17">
          <mxGeometry relative="1" as="geometry" />
        </mxCell>
        <mxCell id="-d9L37czDho2xnpMNs8O-23" style="edgeStyle=orthogonalEdgeStyle;shape=connector;curved=1;rounded=1;orthogonalLoop=1;jettySize=auto;html=1;exitX=1;exitY=0.5;exitDx=0;exitDy=0;labelBackgroundColor=default;strokeColor=default;fontFamily=Helvetica;fontSize=11;fontColor=default;startArrow=none;startFill=0;endArrow=classic;entryX=0.558;entryY=0.988;entryDx=0;entryDy=0;entryPerimeter=0;" edge="1" parent="1" source="-d9L37czDho2xnpMNs8O-14" target="-d9L37czDho2xnpMNs8O-18">
          <mxGeometry relative="1" as="geometry">
            <mxPoint x="750" y="-100" as="targetPoint" />
          </mxGeometry>
        </mxCell>
        <mxCell id="-d9L37czDho2xnpMNs8O-14" value="协议" style="rounded=0;whiteSpace=wrap;html=1;" vertex="1" parent="1">
          <mxGeometry x="370" width="120" height="60" as="geometry" />
        </mxCell>
        <mxCell id="-d9L37czDho2xnpMNs8O-15" value="JMS&lt;br&gt;Java Messaging Service（Java消息服务）" style="ellipse;whiteSpace=wrap;html=1;" vertex="1" parent="1">
          <mxGeometry x="70" y="-210" width="120" height="80" as="geometry" />
        </mxCell>
        <mxCell id="-d9L37czDho2xnpMNs8O-16" value="STOMP&lt;br&gt;&amp;nbsp;Streaming Text Orientated Message Protocol（面向流文本的消息协议）" style="ellipse;whiteSpace=wrap;html=1;" vertex="1" parent="1">
          <mxGeometry x="274" y="-200" width="120" height="80" as="geometry" />
        </mxCell>
        <mxCell id="-d9L37czDho2xnpMNs8O-17" value="AMQP&lt;br&gt;Advanced Message Queuing Protocol（高级消息队列协议）" style="ellipse;whiteSpace=wrap;html=1;" vertex="1" parent="1">
          <mxGeometry x="480" y="-200" width="120" height="80" as="geometry" />
        </mxCell>
        <mxCell id="-d9L37czDho2xnpMNs8O-18" value="MQTT&lt;br&gt;Message Queuing Telemetry Transport（消息队列遥测传输）" style="ellipse;whiteSpace=wrap;html=1;" vertex="1" parent="1">
          <mxGeometry x="700" y="-190" width="120" height="80" as="geometry" />
        </mxCell>
        <mxCell id="-d9L37czDho2xnpMNs8O-63" style="edgeStyle=orthogonalEdgeStyle;shape=connector;curved=1;rounded=1;orthogonalLoop=1;jettySize=auto;html=1;exitX=0;exitY=0.25;exitDx=0;exitDy=0;entryX=1;entryY=0.5;entryDx=0;entryDy=0;labelBackgroundColor=default;strokeColor=default;fontFamily=Helvetica;fontSize=11;fontColor=default;startArrow=none;startFill=0;endArrow=classic;" edge="1" parent="1" source="-d9L37czDho2xnpMNs8O-25" target="-d9L37czDho2xnpMNs8O-26">
          <mxGeometry relative="1" as="geometry" />
        </mxCell>
        <mxCell id="-d9L37czDho2xnpMNs8O-64" style="edgeStyle=orthogonalEdgeStyle;shape=connector;curved=1;rounded=1;orthogonalLoop=1;jettySize=auto;html=1;exitX=0;exitY=0.5;exitDx=0;exitDy=0;entryX=1;entryY=0.5;entryDx=0;entryDy=0;labelBackgroundColor=default;strokeColor=default;fontFamily=Helvetica;fontSize=11;fontColor=default;startArrow=none;startFill=0;endArrow=classic;" edge="1" parent="1" source="-d9L37czDho2xnpMNs8O-25" target="-d9L37czDho2xnpMNs8O-27">
          <mxGeometry relative="1" as="geometry" />
        </mxCell>
        <mxCell id="-d9L37czDho2xnpMNs8O-65" style="edgeStyle=orthogonalEdgeStyle;shape=connector;curved=1;rounded=1;orthogonalLoop=1;jettySize=auto;html=1;exitX=0;exitY=0.75;exitDx=0;exitDy=0;entryX=1;entryY=0.5;entryDx=0;entryDy=0;labelBackgroundColor=default;strokeColor=default;fontFamily=Helvetica;fontSize=11;fontColor=default;startArrow=none;startFill=0;endArrow=classic;" edge="1" parent="1" source="-d9L37czDho2xnpMNs8O-25" target="-d9L37czDho2xnpMNs8O-28">
          <mxGeometry relative="1" as="geometry" />
        </mxCell>
        <mxCell id="-d9L37czDho2xnpMNs8O-111" style="edgeStyle=orthogonalEdgeStyle;shape=connector;curved=1;rounded=1;orthogonalLoop=1;jettySize=auto;html=1;exitX=0.5;exitY=1;exitDx=0;exitDy=0;entryX=1;entryY=0.5;entryDx=0;entryDy=0;labelBackgroundColor=default;strokeColor=default;fontFamily=Helvetica;fontSize=11;fontColor=default;startArrow=none;startFill=0;endArrow=classic;" edge="1" parent="1" source="-d9L37czDho2xnpMNs8O-25" target="-d9L37czDho2xnpMNs8O-110">
          <mxGeometry relative="1" as="geometry" />
        </mxCell>
        <mxCell id="-d9L37czDho2xnpMNs8O-25" value="架构组成" style="rounded=0;whiteSpace=wrap;html=1;fontFamily=Helvetica;fontSize=11;fontColor=default;" vertex="1" parent="1">
          <mxGeometry x="-40" y="460" width="120" height="60" as="geometry" />
        </mxCell>
        <mxCell id="-d9L37czDho2xnpMNs8O-53" style="edgeStyle=orthogonalEdgeStyle;shape=connector;curved=1;rounded=1;orthogonalLoop=1;jettySize=auto;html=1;exitX=0;exitY=0.25;exitDx=0;exitDy=0;entryX=1;entryY=0.5;entryDx=0;entryDy=0;labelBackgroundColor=default;strokeColor=default;fontFamily=Helvetica;fontSize=11;fontColor=default;startArrow=none;startFill=0;endArrow=classic;" edge="1" parent="1" source="-d9L37czDho2xnpMNs8O-26" target="-d9L37czDho2xnpMNs8O-51">
          <mxGeometry relative="1" as="geometry" />
        </mxCell>
        <mxCell id="-d9L37czDho2xnpMNs8O-54" style="edgeStyle=orthogonalEdgeStyle;shape=connector;curved=1;rounded=1;orthogonalLoop=1;jettySize=auto;html=1;exitX=0;exitY=0.75;exitDx=0;exitDy=0;entryX=1;entryY=0.5;entryDx=0;entryDy=0;labelBackgroundColor=default;strokeColor=default;fontFamily=Helvetica;fontSize=11;fontColor=default;startArrow=none;startFill=0;endArrow=classic;" edge="1" parent="1" source="-d9L37czDho2xnpMNs8O-26" target="-d9L37czDho2xnpMNs8O-52">
          <mxGeometry relative="1" as="geometry" />
        </mxCell>
        <mxCell id="-d9L37czDho2xnpMNs8O-26" value="Producer" style="rounded=0;whiteSpace=wrap;html=1;fontFamily=Helvetica;fontSize=11;fontColor=default;" vertex="1" parent="1">
          <mxGeometry x="-350" y="260" width="120" height="60" as="geometry" />
        </mxCell>
        <mxCell id="-d9L37czDho2xnpMNs8O-62" style="edgeStyle=orthogonalEdgeStyle;shape=connector;curved=1;rounded=1;orthogonalLoop=1;jettySize=auto;html=1;exitX=0;exitY=0.5;exitDx=0;exitDy=0;labelBackgroundColor=default;strokeColor=default;fontFamily=Helvetica;fontSize=11;fontColor=default;startArrow=none;startFill=0;endArrow=classic;" edge="1" parent="1" source="-d9L37czDho2xnpMNs8O-27" target="-d9L37czDho2xnpMNs8O-55">
          <mxGeometry relative="1" as="geometry" />
        </mxCell>
        <mxCell id="-d9L37czDho2xnpMNs8O-27" value="Consumer" style="rounded=0;whiteSpace=wrap;html=1;fontFamily=Helvetica;fontSize=11;fontColor=default;" vertex="1" parent="1">
          <mxGeometry x="-350" y="460" width="120" height="60" as="geometry" />
        </mxCell>
        <mxCell id="-d9L37czDho2xnpMNs8O-68" style="edgeStyle=orthogonalEdgeStyle;shape=connector;curved=1;rounded=1;orthogonalLoop=1;jettySize=auto;html=1;exitX=0;exitY=0.25;exitDx=0;exitDy=0;entryX=1;entryY=0.5;entryDx=0;entryDy=0;labelBackgroundColor=default;strokeColor=default;fontFamily=Helvetica;fontSize=11;fontColor=default;startArrow=none;startFill=0;endArrow=classic;" edge="1" parent="1" source="-d9L37czDho2xnpMNs8O-28" target="-d9L37czDho2xnpMNs8O-71">
          <mxGeometry relative="1" as="geometry">
            <mxPoint x="-510" y="855" as="targetPoint" />
          </mxGeometry>
        </mxCell>
        <mxCell id="-d9L37czDho2xnpMNs8O-69" style="edgeStyle=orthogonalEdgeStyle;shape=connector;curved=1;rounded=1;orthogonalLoop=1;jettySize=auto;html=1;exitX=0;exitY=0.75;exitDx=0;exitDy=0;entryX=1;entryY=0.5;entryDx=0;entryDy=0;labelBackgroundColor=default;strokeColor=default;fontFamily=Helvetica;fontSize=11;fontColor=default;startArrow=none;startFill=0;endArrow=classic;" edge="1" parent="1" source="-d9L37czDho2xnpMNs8O-28" target="-d9L37czDho2xnpMNs8O-72">
          <mxGeometry relative="1" as="geometry">
            <mxPoint x="-510" y="1290" as="targetPoint" />
          </mxGeometry>
        </mxCell>
        <mxCell id="-d9L37czDho2xnpMNs8O-109" style="edgeStyle=orthogonalEdgeStyle;shape=connector;curved=1;rounded=1;orthogonalLoop=1;jettySize=auto;html=1;exitX=0.5;exitY=1;exitDx=0;exitDy=0;entryX=1;entryY=0.5;entryDx=0;entryDy=0;labelBackgroundColor=default;strokeColor=default;fontFamily=Helvetica;fontSize=11;fontColor=default;startArrow=none;startFill=0;endArrow=classic;" edge="1" parent="1" source="-d9L37czDho2xnpMNs8O-28" target="-d9L37czDho2xnpMNs8O-104">
          <mxGeometry relative="1" as="geometry" />
        </mxCell>
        <mxCell id="-d9L37czDho2xnpMNs8O-28" value="NameServer&lt;br&gt;&lt;br&gt;一个Broker与Topic路由的注册中心" style="rounded=0;whiteSpace=wrap;html=1;fontFamily=Helvetica;fontSize=11;fontColor=default;" vertex="1" parent="1">
          <mxGeometry x="-360" y="1260" width="120" height="60" as="geometry" />
        </mxCell>
        <mxCell id="-d9L37czDho2xnpMNs8O-29" value="Message&lt;br&gt;生产和消费数据的最小单位" style="rounded=0;whiteSpace=wrap;html=1;fontFamily=Helvetica;fontSize=11;fontColor=default;" vertex="1" parent="1">
          <mxGeometry x="2614" y="-260" width="120" height="60" as="geometry" />
        </mxCell>
        <mxCell id="-d9L37czDho2xnpMNs8O-32" style="edgeStyle=orthogonalEdgeStyle;shape=connector;curved=1;rounded=1;orthogonalLoop=1;jettySize=auto;html=1;exitX=0;exitY=0.5;exitDx=0;exitDy=0;entryX=1;entryY=0.5;entryDx=0;entryDy=0;labelBackgroundColor=default;strokeColor=default;fontFamily=Helvetica;fontSize=11;fontColor=default;startArrow=none;startFill=0;endArrow=classic;" edge="1" parent="1" source="-d9L37czDho2xnpMNs8O-30" target="-d9L37czDho2xnpMNs8O-31">
          <mxGeometry relative="1" as="geometry" />
        </mxCell>
        <mxCell id="-d9L37czDho2xnpMNs8O-30" value="Topic&lt;br&gt;一类消息的集合" style="rounded=0;whiteSpace=wrap;html=1;fontFamily=Helvetica;fontSize=11;fontColor=default;" vertex="1" parent="1">
          <mxGeometry x="2614" y="-120" width="120" height="60" as="geometry" />
        </mxCell>
        <mxCell id="-d9L37czDho2xnpMNs8O-31" value="一个生产者可以同时发送多种Topic的消息；而一个消费者只对某种特定的Topic感兴趣，即只可以订阅&lt;br/&gt;和消费一种Topic的消息。 producer:topic 1:n consumer:topic 1:1" style="whiteSpace=wrap;html=1;aspect=fixed;fontFamily=Helvetica;fontSize=11;fontColor=default;" vertex="1" parent="1">
          <mxGeometry x="2244" y="-155" width="173" height="173" as="geometry" />
        </mxCell>
        <mxCell id="-d9L37czDho2xnpMNs8O-35" value="Tag&lt;br&gt;消息的二级分类" style="rounded=0;whiteSpace=wrap;html=1;fontFamily=Helvetica;fontSize=11;fontColor=default;" vertex="1" parent="1">
          <mxGeometry x="2614" y="40" width="120" height="60" as="geometry" />
        </mxCell>
        <mxCell id="-d9L37czDho2xnpMNs8O-49" style="edgeStyle=orthogonalEdgeStyle;shape=connector;curved=1;rounded=1;orthogonalLoop=1;jettySize=auto;html=1;exitX=0;exitY=0.5;exitDx=0;exitDy=0;entryX=0.992;entryY=0.556;entryDx=0;entryDy=0;entryPerimeter=0;labelBackgroundColor=default;strokeColor=default;fontFamily=Helvetica;fontSize=11;fontColor=default;startArrow=none;startFill=0;endArrow=classic;" edge="1" parent="1" source="-d9L37czDho2xnpMNs8O-36" target="-d9L37czDho2xnpMNs8O-37">
          <mxGeometry relative="1" as="geometry" />
        </mxCell>
        <mxCell id="-d9L37czDho2xnpMNs8O-36" value="Queue&lt;br&gt;Topic中可以包含多个Queue" style="rounded=0;whiteSpace=wrap;html=1;fontFamily=Helvetica;fontSize=11;fontColor=default;" vertex="1" parent="1">
          <mxGeometry x="2614" y="200" width="120" height="60" as="geometry" />
        </mxCell>
        <mxCell id="-d9L37czDho2xnpMNs8O-42" style="edgeStyle=orthogonalEdgeStyle;shape=connector;curved=1;rounded=1;orthogonalLoop=1;jettySize=auto;html=1;exitX=0;exitY=0.5;exitDx=0;exitDy=0;labelBackgroundColor=default;strokeColor=default;fontFamily=Helvetica;fontSize=11;fontColor=default;startArrow=none;startFill=0;endArrow=classic;" edge="1" parent="1" source="-d9L37czDho2xnpMNs8O-37" target="-d9L37czDho2xnpMNs8O-41">
          <mxGeometry relative="1" as="geometry" />
        </mxCell>
        <mxCell id="-d9L37czDho2xnpMNs8O-37" value="一个Queue中的消息不允许同&lt;br/&gt;一个消费者组中的多个消费者同时消费" style="whiteSpace=wrap;html=1;aspect=fixed;fontFamily=Helvetica;fontSize=11;fontColor=default;" vertex="1" parent="1">
          <mxGeometry x="2240.5" y="155" width="180" height="180" as="geometry" />
        </mxCell>
        <mxCell id="-d9L37czDho2xnpMNs8O-41" value="" style="shape=image;aspect=fixed;image=data:image/png,iVBORw0KGgoAAAANSUhEUgAAAx4AAAIkCAYAAACQrP1BAAAAAXNSR0IArs4c6QAAAARnQU1BAACxjwv8YQUAAAAJcEhZcwAADsMAAA7DAcdvqGQAALQ3SURBVHhe7Z0FmBvX2YWbtoEmTdtA05T+Bkppm4axYWZm5jjk2DHEdgxx4thJHMeOmZmZGXbX7DUss5nZy2T7++dc6c6OtCOtNpZ2Z6Rznud9rJlvRju61uzeV3Pv6CfCMAzDMAzDMAwT4VA8GIZhGIZhGIaJeCgeDMMwDMMwDMNEPBQPhmEYhmEYhmEiHooHwzAMwzAMwzARD8WDYRiGYRiGYZiIh+LBMAzDMAzDMEzEQ/FgGIZhGIZhGCbioXgwDMMwDMMwDBPxUDwYhmEYhmEYhol4KB4MwzAMwzAMw0Q8FA+GYRiGYRiGYSIeigfDMAzDMAzDMBEPxYNhGIZhGIZhmIiH4sEwDMMwDMMwTMRD8WAYhmEYhmEYJuKheDAMwzAMwzAME/FQPBiGYRiGYRiGiXgoHgzDMAzDMAzDRDwUD4ZhGIZhGIZhIh6KB8MwDMMwDMMwEQ/Fg2EYhmEYhmGYiIfiwTAMwzAMwzBMxEPxYBiGYRiGYRgm4qF4MAzDMAzDMAwT8VA8GIZhGIZhGIaJeCgeUZgBAwbIiy++6EPXrl291R+f+Ph49VwdO3b0rolM3n33Xdm7d693iWHCmzlz5lQ7P5o2beqt/vhs3LhRPdf777/vXRP+tGrVyjzmpUuXetcyjDMyb9488/2p+eSTT7zVH59Nmzap52rQoIF3TfjTunVr85gTEhK8axmGCXcoHlGYxYsXy5133in333+/9OrVSwFZ+OGHH7xb/LhkZmbK22+/rZ47EikvL5cPP/xQTj31VNWJY5hIJDk5WV566SW57LLLzPPj+++/l08//dS7xY8LZLldu3byu9/9zrsmvGnTpo1899135jG3aNFC4uLivFWGqf+kpKTIK6+8Iv/97399zq3mzZt7t/hx2bdvn3z++efy29/+1rsmvMF5az23WrZsKUuWLPFWGYYJZygeUZomTZqojorOxIkT5a677vIu/fhMmjQpYuJRUVEh33zzjZx++ukUDyaiGTx4sDz++OPeJY9Un3/++d6lH5/s7OyIicdFF10k69at8y6J+mS2Z8+e3iWGcUaGDRsmjz76qHdJJCcnR8477zzv0o9Pbm5uxMSjb9++smvXLu+SKHnq3r27d4lhmHCG4hGlgXjcfvvt8tVXXynat28vgwYNUrX9+/erdd9++60cO3ZMunTpopatw5umTJli7mv9VFWLx86dO826fh4dDPXStbS0NO9akWXLlql106dPl6ysLPVYH5M155xzDsWDiWggHv/617/M9+mXX37pM4RQnxN79uyR4cOHq8fW9zKGOel9J0yY4F1bJR6Q6E6dOpnb4Hl0pk6daq63fqpqPScOHjyoHn/99ddSWVmp6p07d5YdO3aoxwjFg3FiIB6XXHKJ+R7HudWhQwdvVdSwX6zfvXu3jBgxQj1OTU31VkWWL19u7jt+/Hjv2irxwPmA80JvYxWGadOmmetx5V8H8oN1AwcOlEOHDqnHOD9xnlozcuRIVcOHdjgOhmHCH4pHlAbicfXVV8sHH3ygwDASdHgQ/MJ/7bXX5JRTTlHDrz766CO1je7UQAwwjEPv27ZtWzW/A9HisWXLFnnhhRfU1YnGjRvL0aNHVR1/dDCmV++LPzj6jwrG1t98881y7bXXqk4e6vgD4h+KBxPpQDxwBUG/T/Eetkpws2bN5Mwzz1TnAeZ/YJs1a9aoGgQaQzP0vji3IOqIFg8MG2zYsKGcdtpp8vLLL8v27dtVfcaMGWoYh94X55YW+6SkJHnsscfkT3/6kxIf1D/++ONqnSNk5syZ6nn0eckwTgn+Blx44YXme7xRo0aqw6+DYVe/+tWv1Hmjz63Vq1er2ooVK9SQKr0vtpk8ebKqafHA+YDzAucWhkxu3bpV1fU5ofeFPGixxxAwnFt//OMfzXML5yfOU2vw9xA1/N3CkEyGYcIfikeUpqahVrhi8fOf/1z94i4qKvKu9QRzQ0aPHu1dEvniiy+UnCBaPHDVpHfv3mpOhjUXXHCB+oQLf3zA9ddfL3369PFWRV2+RoevW7du3jXVQ/FgIp1QhlrhvfzQQw+pKxHWQEo+++wz75KojtEdd9yhHmvxwKey+DT3jTfe8LmSiOfDzRP0+fHUU0+pjo4OPqU9++yzg052nzt3rhIlCBDDOC14X9c01Ap/Ax588EHJyMjwrvEEog90cAXj1ltvVY+1eOBDLlyZwLllvZL4yCOPyDvvvGOeW08//bS899573qoowT/rrLNCmuzOoVYME7lQPKI0oYjHGWecYV6psKYm8cDEQQz7+Pvf/67WWYPO2m233ab+8GhwpUMHv8zxSz1YKB5MpBOqeOAqhH9qEo9f//rXMnbsWPnZz36mBN0aiMdVV13lc37069fPW/WIx5VXXuldqh7U0bnSnxAzjNMSqnisX7/eu1SVmsQDV0ow/Aofmvnf+RDigXPHem5ZP/SCeFx++eXepeCheDBM5ELxiNJEUjzwqRHmjzz55JPVbunp31nDuHjruHSKB+OERFI8Tj75ZHV+AAytKikpUTUE4oFPa3U2b96s9tEJJh4YhvLcc8/Jhg0bvGsYxnmJpHhYzy0MCS4uLlY1BOKB+Vg6GA5svVoZTDxWrlwp+fn53iWKB8NEMhSPKAw6M5h4+uabb0piYqICn6rqy87oCOEqBMbI4pNT1MvKylQNgWRgGJXeF2NuMYEcn97i32uuuUZdIscvdUgC7rRz/PhxtS86VhjvrvfFfdf15FtMAsQQElxiR81/CAsmqK9du1Z9Yoz5KNY/KgwTrmB4BuZW4Mqcfp9CEO655x7vFqI697///e+VgKN++PBhb0XUMEHc81/vi5spYPgUhixCzDFUCucE3s84P6zvZYxNx+069b6Qej3PCZNe8QntP/7xD1Xzlx501jB8S+8L+H03jJOC9yP+XkAW9Ht01qxZPh964dzCXAsIOOrWc6tHjx7qu2r0vpgbglu449zC35Xf/OY35rmFYVdYp4cKY/gh9tf7YsgvJpAj+Bn4G4ir9Kj5yzvmf+DDOb0vhj+OGTPGW2UYJpyheERh8Iv7b3/7mw/WceT45Mi/rie/6mBCoK7pLx/EL2a9Dp8W46oEHl966aXmnXcQyIfeDp9K6aDDpdcDzC+xprS0VN0NRdfT09O9FYYJX4YOHerzPgRW6UAwHMpat94hB7G+l7XQYwKrXvef//xHTVyFpGPZ+l7GGHO9Hb47QGf+/PnmenDdddd5K57gqoq1DiAiDOOU4IqD/3vU//bruLmItb5w4UJvxRPIt65hWCGCK+d6He5Ghw/KcH5g2XpHLFzp19vhQzKdRYsWmesBzkv/QD50HR8gMAwTmVA8GIZhGIZhGIaJeCgeDMMwDMMwDMNEPBQPhmEYhmEYhmEiHooHwzAMwzAMwzARD8WDYRiGYRiGYZiIh+LhsOCLx/A9GpdddhkhrgPfxL1mzRrvuzn8wffGPPHEE7Y/mxCng1uJ4xawTgy+CZ/nFnErDzzwgPpOJcb5oXg4LC1btlTfCRAfH0+I68B3Y0SyY4Xbx0LM7X42IU7n1Vdfla+++sr7bnZW8L0a9957r+1xE+J0XnvtNfW9SIzzQ/FwWPAlSPhyM4ZxY/B9GOPHj/cuhT+DBg1S35jPMG4MvsPFqb/fhwwZor7LgmHcGHw58WeffeZdYpwciofDQvFg3ByKB8MEDsWDYSITiod7QvFwWCgejJtD8WCYwKF4MExkQvFwTygeDgvFg3FzKB4MEzgUD4aJTCge7gnFw2GheDBuDsWDYQKH4sEwkQnFwz2heDgsFA/GzaF4MEzgUDwYJjKheLgnFA+HheLBuDkUD4YJHIoHw0QmFA/3hOLhsFA8GDeH4sEwgUPxYJjIhOLhnlA8HBaKB+PmUDwYJnAoHgwTmVA83BOKh8NC8WDcHIoHwwQOxYNhIhOKh3tC8XBYKB6Mm0PxYJjAoXgwTGRC8XBPKB4OC8WDcXMoHgwTOBQPholMKB7uCcXDYaF4MG4OxYNhAofiwTCRCcXDPaF4OCwUD8bNoXgwTOBQPBgmMqF4uCcUD4eF4sG4ORQPhgkcigfDRCYUD/eE4uGwUDwYN4fiwTCBQ/FgmMiE4uGeUDwcFooH4+ZQPBgmcCgeDBOZUDzcE4qHw0LxYNwcigfDBA7Fg2EiE4qHe0LxcFgoHoybQ/FgmMCheDBMZELxcE8oHg4LxYNxcygeDBM4FA+GiUwoHu4JxcNhoXgwbg7Fg2ECh+LBMJEJxcM9oXg4LBQPxs2heDBM4FA8GCYyoXi4JxQPh4Xi4ckPP/wgu3bt8i6JTJo0SdasWeNdCj3du3f3eR4msqF41E3GjBkjycnJ3iWRpUuXyqxZs7xLoWfs2LGSlJTkXWIiHYqH8+N/TixbtkxmzpzpXQo948aNkw0bNniXmEiH4uGeUDwcFoqHJxdeeKGsX7/euyTywgsvSK9evbxL1bNnzx4ZPHiwd6kqF198saxbt867xEQ6FI+6ycMPPywjRozwLol07NhR3n//fe9S9VRWVioJLyoq8q7x5NFHH5Vhw4Z5l5hIh+Lh/KANhg4d6l0S+eabb+Tdd9/1LlXPsWPHpEePHtXOrccff1y1KVM3oXi4JxQPhyVc4rF69WrVSbMyZ84cb/XEs2/fPpk4caJ3qXbJycmRhQsXepeqZ+TIkdKgQQPZsmWLd41Iv379pEOHDj6f8lqzdu1aJRn+oXjUbdwiHtnZ2dXOj9GjR3urJx509NHpKC0t9a4JPfv375cJEyZ4l6oHVzaaNGkiK1as8K4R9Ylsq1atJC4uzrvGN2VlZXLqqacqQbeG4lG3iQXxyM3Njei5dfToUSUGJSUl3jWh58CBA0F/P82ePVudW7jKoYN1LVu2lCVLlnjX+Abn+umnn17tyjrFo25D8XBPKB4OS7jEA788//nPf8p///tf+ctf/iLXX3+93HXXXd7qiQd/XD788EPvUu2CPxrB/sCdc845snHjRu9SVd577z3p1KmTd8k3FA9nxC3igatjf/jDH+Tmm2+Ws846Sx33+eef762eeNDRf+aZZyQ/P9+7JvTgvfzXv/7Vu1Q9t956q0ybNs27VJWePXvKiy++6F3yDcXDGYkF8cD76fe//706t37zm9/IvffeK+edd563euKpqKiQ5557To4cOeJdE3pwFR1X0wPl9ttvl8mTJ3uXqtKnTx95/vnnvUu+oXg4IxQP94Ti4bCESzxwhQAd/K5du8rrr78uCQkJ0rx5c2+1/rJ161b5/vvvlUQkJiZ613qCT7IWLFighpHYzcvAvI8vvvhCXTHxDzpr+GM3b948H7AOQ7T08s6dO717MJGIW8Rj7ty58vnnn6v32zXXXKPelxCF+s7Bgwdl+PDh8vTTT9t+wrpy5Up1PluvduhARho2bOgzRFFHiwfGr1vPjxtuuEGaNWtmLuNKEBO5xIJ4zJ8/X73GRYsWyZVXXik7duxQ7+f6Ds4tDE986qmnZPHixd61VcG59cYbb/hc7dCZMWOGfPTRR7bnlhYPzLuynls33nij+gCQ51bdhOLhnlA8HJZwz/HQ4uGf8vJy9YtWg44JkpaW5rMebNu2TdUQ/PLW6wNNSsVwKOv+1k9ZMc78lVdeUZ8q4dMlHRwP5AgdIQzDsu5vBcNJ8Mtl06ZN3j09gXigY3XdddcFBZfNmcjFbXM8tHjYBZ0M/b47dOiQWof3nfX9CKwdCgz/sNbw6ax/cLXQuo31vYwOETprkGv/T4kxUfWJJ55QnSfr/lYw1hydp/T0dO9enmjxwHPbnRca7M9ELrE0x0OLh13wXtbv2WDnVlZWlqohGLZordX23MIwxMsvv1xdTcdVdWtwPPi9Aum37m8FVxTxtxR/I63R4nHFFVfYnlMa/O1jIheKh3tC8XBY6kI80AnBpzqXXHKJCX4p4xc7JnGfccYZahiKrrVu3Vp2796t9sWnWVh3wQUXyN///ne1zhr84r/vvvvMfX/1q1+py9Q6gcQDc0Yuu+wyJSCQD+yLjtL//d//mc+Fy/YYatW3b1915cOaQEOtmLpNtIgHOjy33HKL+d5DhwRDO9q1aydnn3226rjo2quvvmrOR9q8ebNa949//EN+8pOfqPka1kDi3377bXPf3/72t/LBBx94q8HF4+6771ZC8fLLL6t9cW797ne/M58LjzHUCh0+bGNNoKFWTN2G4uGZX3XbbbeZ71tcmce51b59e3VeWc8tvI/1uYV/sQ5DiE866STZu3evWq+DcwuTwPW+OLdwZV0nmHjgb1Zqaqo6l7Hvr3/9a59zC8MwMdQKVyH9hzMGGmrF1G0oHu4JxcNhqQvxyMjIUEOQrME8ED1x+/777/eZDIhOPi4zW4Nb29qJB4TEeiUEd9pBp00H4oFL3QMGDPARD7vgj4R1smxNczzwGrZv326LvqLDRDbRIh6Y92H9tPSBBx6QUaNGqccYmmT9AweJvuOOO7xLnhQXF8vJJ59cTTweeughdfMEHQwfxFU8HYjHf/7zH3X1r6Zx8egA4VNYnVDmeOCTXbvzo7Cw0LslE8lQPETOPfdcycvL8y753qGtRYsWCh0MH8ScJmv0e9lfPB555BGfvzW4emd9Lvwt+de//iXLly+vJh7+wYdj1isUoczxwFxCnlv1F4qHe0LxcFiiTTyswR+Mbt26yZlnnqnApEP/WxDq4Jc1JsTj+wl0ahIPfAqmn9vKT3/604B3JGHCG4qHJ6GKhzUYOoI7z+n3Lc6lgoICOX78uHeLquD50TnCXC6dUMQDVzOt5wb4+c9/ziFWdRSKR92JhzWQA8yz0O95XEkPdG5huCT+Zlqv1IciHoHOLXy4wEQ+FA/3hOLhsESzeOB2uLgTFu57DjCX46qrrvJWfYM7j+ATJOsfhprE46KLLjKf2wqunFA86iYUD09+jHhMmTJFDUHR71sMb0QHCx0t/6Czhk6W9fwIRTzwnNZzA7z00ksUjzoKxaN+xGP69Olq6KR+z2NoL85Pu1vyog3QFtZzKxTxwI1LrOcVwIcDFI+6CcXDPaF4OCzRJh6Y6IrOIqLFQwd/mIKJh/8dRAKJR3x8vPzvf/9Tn2DZBZP+KB51E4qHJ6GKx3fffafufINo8dDBfIxg4qE7azqBxAPHgM4eng+dIf9gHD3Fo25C8ag78cDdE/H3FNHioYNzIph4WL9AEAkkHrjZCn5XYH6H3bmFOSMUj7oJxcM9oXg4LOEUD0gHJmTjEjAmtOpgSAeuJvz5z382wRcOYmI3AvHABFpdw+RyfecR3BUK6zDxDpeR8fhvf/ub+tQHwac+6DzpfQcOHKiGTUE6MGHvl7/8pTRq1EgNKcHkP/zyx/3erbn00kvVXUT08egEEg89ITdQKB51FzeJB97LeA+ecsop1To3GJsNIdHvY9wqUw8LhHhgYreu4YYMuhOEiatY98c//lFNLsdNGrCs74SDT1oh43pfzO/AuYUvDMS4c3SocP5BerAvnuNPf/qT+uIzHcyRggT5D1MMJB74mXiNgb7MkOJRd4kV8cDtqgP9fsftdXGXJ30OWN/LkA4MUdI1fF+HPrdw4wasw/lgPbf0B2Z4n7/55pvmvnguiAE+GIDs4NzC8F5MUreeW1aBwS21IUH+51Yg8cB5+bOf/SzgkGGKR92F4uGeUDwclnCKB36h4k4dAN9TYA3kQ9eAtZOPjs8333xj1qx3wsEXoln3A7jTjvWyNO5spWuHDx9W6zDEQ69Dp876PPp7OdAxwp2t8B0F+nhwqfrf//63okuXLuqPizX4VA33iLd+guYfikfdxU3iYfcetAZ339F169U0iMc777xj1qznFj6N1eutWD9Zxftfr9fnFs4TvQ7vZf/n0WKP1z5u3Djziwm//PJL8/zA7w48tzU4NsyVgvjYfSKLUDzqLrEiHtZzy+77K6znln4vI5AFyIOu6TtaIbU9t/SdGK3nFv424W+LXgb6trz4O4LvudHHgw/L9Ln18ccf+9xWHsHPuvbaa4OeWxSPugvFwz2heDgs4R5qVdugQ4WrJLiKgaEfdRl8gSCkw3p/dvxhwF1IgP5DYg0+0fK/r7p/MPTrx3zLLVP7uG2oVW0DIcenpbiigWFSdR3/9zKusOjzw+7b/iHzGBYZLJAu3gq0bhJLQ61qm2+//VadW6Bz587etXUXXDmxnlu46qjPLbsPtnBuYaRAsEB0eG7VTSge7gnFw2Gpb/FYtWqVGgYF/D/hYZiaEu3iAcnV54f/l/QxTE2heAQOzieeW8yPDcXDPaF4OCz1LR4McyKJdvFgmBMJxYNhIhOKh3tC8XBYaiMeGDuKb2rFmFhCIgVuBhCqTDhJPDBptWHDhraviZBwgZte9O7d2/uuC55oEQ/c9ZDnFok0DRo0CPnconi4JxQPh6U24nHJJZfI559/riZdExIpILeBvh/CP04SD3SicPtmu9dESLjAncmuvvpq77sueKJFPJ544gn54IMPbNuDkHABkQh2x0prKB7uCcXDYamNeOD2tP53q2KYcAd3UcJtKEOJk8QD3+0ya9Ys7xLDRCaY94ObDYSSaBEP3CJ3xowZ3iWGiUwyMzOrfedYoFA83BOKh8NC8WCcFooHwwQOxYNhIhOKR3SG4uGwUDwYp4XiwTCBQ/FgmMiE4hGdCYt4VFQelb0Hi2TnvgJygrz97gfSuEkL25o/Z575K1mzPsO2Rki46NN/qNx6+522NX9uue0O6TtgmG0tHHzXrZc88OAjtjV/rr7mOhk+eqJtjZBwsThhtZx//u9ta/680+BD4/f7p7a1+ub77n3k3vsfsq35c+11N8jQkeNta4SEi/jla+W8835nW/OnwfsNpWGjZra1umDPgSIpK/d80SsTPGERj4KiMpm/cpNMj88lJ8ijz7wuz732kW3Nn9PPOFMGjY+3rRESLpq1+0GuvPZm25o/V1xzkzT/vLttLRx89GknufGWe21r/lzynyul7TcDbGuEhIuew2bLOb8937bmz6PPvCHPvfqhba2++bjlN3L9zXfb1vz593+vljad+tnWCAkXvYfPlbPO+a1tzZ/Hn3tLnnn5fdtaXTBvxUbZd6jI2ytmgiUs4nGksMz2P4LUHooHcRoUD0ICQ/EgJDK4STzA7gMUj1BC8XAYFA/iNCgehASG4kFIZKB4RGcoHg6D4kGcBsWDkMBQPAiJDBSP6AzFw2GEUzymxWcbZBpkxDBZBjlsm4DYt4+VaBWPaXG5MtlgYgyD1z/VgG1jT6D2sULxqM60uByZujhbpi6MYYzXj3Zg2wQgQPtYoXhEZygeDiOc4jEpYZWMWjFGhq3qGbOMWT5dpsSnVmubiUtXGm0z2nafWGLM8mlG+6RUax8r0SoewxfnSYv5W+W5OTtjlubG6x9qtIN/2wwz1qFmt08s0cxogyE27WOF4lGdCTPTZUD3ldLt04UxS/9uK2T89LTqbTMjTQb8sMJ2n1iif9flMn5a9faxQvGIzlA8HEY4xWP80rkyYE0L6b7hyZhlyKouMjl+XbW2Gbd0tvRf09x2n1hiyKrORvskVmsfK9EqHr0Wb5Q7Z+2Sn089HLPcOmu3/LBoY7W26W6su82o2e0TS9xitEFXm/axQvGozpjxyfLNu7Ok8VXDYpZOb8yUUaM2VGub0WOS5Ou3Z9ruE0t0fH2GjBxZvX2sUDyiMxQPhxFW8VhmiEei0blOeixmGbLa6Fgn2IjHMkM8Epva7hNLDFn9jdE+sSoem+R2o2P5k6lHYpabZ+0xxKP6rdC7G+tuMWp2+8QS/zPaoKtN+1iheFQH4vH127Ok0eVDY5aOr80IKB6d3pxpu08s8dWrFI9YDcXDYVA8wgvFIzgUD4oHxSMwFA97KB41Q/EIDsUjdkPxcBgUj/BC8QgOxYPiQfEIDMXDHopHzVA8gkPxiN1QPBwGxSO8UDyCQ/GgeFA8AkPxsIfiUTMUj+BQPGI3FA+HQfEILxSP4FA8KB4Uj8BQPOyheNQMxSM4FI/YDcXDYVA8wgvFIzgUD4oHxSMwFA97KB41Q/EIDsUjdkPxcBgUj/BC8QgOxYPiQfEIDMXDHopHzVA8gkPxiN1QPBxGfYvHwm09ZfXusTIyq6FtvT6Yu6WLOiYwIael7TaBCLd4LNjaXR3H6KxGtvX6YuamjjIup/aSSfGonXg8tLJI2meVyh3LCm3r9cFdxrHgmMATq4tstwlEuMXjgRWe9rl7ee2OI9LcEF8ojxj/d3a1YFA87ImEePT/aIHM7Zckvd+ZZ1uvD3q9M1cdExjcdLHtNoEIt3j0fX++Oo4+7823rdcXXV+ZKQMbLbKtBYPiEbuheDiM+hSP+Vu7yZo9E2Td3imyYtdIGZX1se12dcmczZ1lze7x6pjAyl2jayUf4RSPeVu6+rTP6KzGttvVNTM2fSV7inMkfscA23owKB6hi8cDkI7MUumcWybtjH+dIB93GseAY8ExgS+MTv9jq0LvYIdTPO4zpONzS/tAiOy2q2tuNKRj2q4K6b+53LYeDIqHPeEWj34fGNLRd4MsHpYqc/psUB1+u+3qkl5vz1XHgmMC6PQPahx6Bzuc4gHZmGNpn94NnCFn3V6ZJalLtsrKKTm29WBQPGI3FA+HUV/iMWfLd7Jh33QZltFALePKx/KdI+pdPnYUpsn0TR3M5cS9kyTR6PxbtwlGuMRjtiFA6/dOk+GZ76vl+Vu7O0Y+Fm3rI4dKd1A8/AineNy7vFA6ZpfKLUs9nWl8so9O/q3e5fqi56YyaZFeai6/uLZYdbKt2wQjXOJxt9E+Xxntc7u3Pe4xlr802ud2B8jHw4YwrjhYSfGogfoSD3SqFwxMlh5vzlHLfT+YL/P6J0nPtzzL9UXC6AyZ2WOduTy8RbykxW/z2SYY4RKP3u/Ok/lG+2gZg3TMH1C1XJ/0/2ihbE7aS/HwQvEILRQPh1Ff4pFfvreaZKQemCtLdw6RkZkfGWLSWcZlN1PrB6S9qpanbfzCZ/uZmzqp9aB/6itqHYb/YHlE5gdqeVjGe2rZetWiT8pz5n6gZ/JTZs0p4nG4bKeMyf7EZ13S/pmGfIxQrw3HrYc64bVjefrGquMGMzZ1NF8j2hDr0KZYHpH5oVoelvGuWp6Y28rcr3fys+Z+oFfy02ZNk35wIcXDj3CKx8zdFfJ8YrHPug+TS2To1nL549x8edaoofON9adOP6KWwSnTqrZHJ1yvv3h+gVp3ycICtXxdvGff3872PBfERu8HcBVD74tt9HqniMdk42e+ss63fd5NKpFR28vl93M8r+le7/Crk4020a/lNKOt9Pa3GdKi1/9tgad9/uFtHwyVwvK53vbBkDe9H8AwKr3v74yfZ62BT1JLKB41UF/ikRq3TUa0SvBZN6HjSkmcmSdt7x4nQ5vHSZ8GnuFFTa4ZrpZBU+Ox3h6Sotd3eHiSWtfxsSlquevLnk7+Z7ePUcvoLOv9AIYJ6X1b3zHWXO8U8UhasEVGt13ms25s++Wyfu4maXPnWHXcGIaF9Z9cPcx8Lc2uG2FuD6nT6796dLJah3+xjKsWWG51q6d9Bnzs2z4DGi4098XPs9bAlM6rKR5eKB6hheLhMJwoHnM2fycHS7dJxsFFav2orEaysyhTfcqO5R5JT8jUje0l9/AK2Zy/VrFwaw8ZYHTAl+4cKgXl+2SZ8S+2hUTsL9kseUdWqeW+KS+o59f7AQhM7+RnVN0N4jFr0zdyoGSrZB2KV+shajsL0+VI2R5z2yl5n0vO4eVV7bOtl5KPhB2DJL9sr7p6gu2m5bWXfSUbjW0S1TKkbPbmb839AH5e75RnzecGFI/q1JV43BBfIKsOVUqiAdb/ZuYRmbunQo4dPy7nzPJ0gv+XUGh0fMtklrEeNEsrkQvn58sza4okLf+oDNvm6RRfurhAlh2olJzCo2r5pwb3GhIycWe5ue+b64vlPK98uEE8ro4rUFccko54XtMvZxyR2cbrqDx2XM73SgLEoq+lfT412gdyhjkrKUb7jDGeB9v9yxCRBKN9thQfM38O5pOM21HVPm9vqC4fFI+acaJ4fP/STNmcsk+2ZxxQ6z+9aaRkLNshx44el9a3ezrB3V6dJcsnZkn60u2K6d0S5cuHJsqQpktkV+4hWTtro9ru6yenysb1e+TA9gLPz7nCc7UlacFmc1906LV8uEE8vnt+umxO3qteJ9Y3u36Eeh1HK49Ju3vGq3VdDbFYNj7TfI0zflir5Gxg40WyM+eQbJi3WW3X8bHJkrdujxzeU2T+HFxdWT9vk7nvuC9XVJMPikcVFI/QQvFwGE4UDzxGp1aLBxib3dQUD3wif+z4USUfE3JaKPYVG3+sN36p6in755jiATCXRIvH2OwmhpjsN/cDZZVFMjTjXVV3g3jg8eLtfUzxAJh8rsWjZ9KTUnHMOEc2djBf457iXCVY6nn24Xk84gEw7E2LB/5PiioO+bRPSWW+DPdeQdJQPKpTV+KBx5jvocUD/GL6ESk3OtZaPDYYne73k4qVgIDJhkg0NzrXqH1gPI8WD3DlkgJTPHD1pMx4HlwB0fuuO1wpD3vncbhBPPD4JuO4tXiAn007IkWVVeKx2mi7hslV7QORaJ3heV0QCS0e4D+LCkzxgJgVGs/zqNEeet81xnM96TfJnuJRM04UDzzGp/VaPACuelSUHTXFY5tRm/j1KvnhtdkKdNRndvcIw/ivVpriAb59dpopHk2uNp6ntFJdAdH7bkvfrzrkqLtBPPAY4qXFQ1NaVGGKx+bkfYYcrDFf4zpjP8wTQW3M58tN8QCdnpjiIx4lheVqXoveFxI4tNkSsw4oHlVQPEILxcNh1Ld4oMOPf3ElorbicaB0m7qaoZnoHU5Vk3gcPVbhsx8YlPaGqjtNPHT79Et9sdbigatG1tc4KbeNqtckHkePVfrsB4akv2NuDyge1YmEePxhbr5canR88Yl6bcUjr+ioJOdX8fo6T+c4FPFIL/DdV88tcZp4YFgV2gdCUVvx2OjXPu8YwoFaKOKR4dc+/hPbKR41U9/igWFV3zw1VX2iXlvxgEzg03sNOtSohSIeuzce9tm359ueuSVOE4+2d3nbx/i3tuJxYIdv+4zvsELVQhGPPZt826dPA9+J7RSPKigeoYXi4TDqSzx2FmYYHeHWsvHIGiUhuG1s0r4ZsmhbL1UPRTz6pb5k1gemvSa9vMOlahIPdOp1DQxOf1MN38Jjp4jH9sIUmZLXVvIOr1Ttg3ZZv2+qLNneV9VDEQ+0ia5jmJUeTlaTeODn6RoYpNrnSZ91FI/qhFM8Bm8pkzeMjvUPeaWy2ej0fpFZKo1SSuS7XE+nPxTx0BPTwdmzjsivZnoehyIemNug65AePD8eO0U8MEwKotDFaA+0DybiQ8y6Ge2FeijigTt06fpZRvv82ts+oYgHhFDXMQzt9BmexxqKR83Ul3ismJwtY4yOdNzIdDm4s1Dm90+WSd+ukiUj0lQ9FPHo+VbVROtWt4yWFv8bpR6HIh7WeR14rOdGOEU8lo3PUqKwaGiqap+Fg1OUmCWMyVD1UMRDz5EBLdE+N3naJxTx+Pxez/MA1T7XV80dARSPKigeoYXi4TDqSzwA5iVMzm2rPs3HfI1F23qbNXS00w7MVzWAT+sPl+5UV0Z6JT0jxRVH1Kfwur4lf73RUW+n9l23d6oSD11DJ32T0bHG/AV00PcW55k1cLhst/Fcb6t9Nx1JlJmbvzZra/ZMlJWWTnpNhEs8wPaCFDWcDMeRdShB4rb3N2sQtXRDzPRxYvI85m6gfSBRheUH1MR6XcfrmuYdipa4Z5ISD11bsK2HbDXaD+2DSef7S7aYNXCodLsMNZ5L/2zM98g8FCfLdw6znXgeDIpHaOIB+hmd6/eTSoxOcb66Y1P3jWVm7eaEAonbV6FqAJ/8QzwumpevOsfx+yvVnZ50vfvGUjW0CPtizsZAQ2x07dalBZJniAc63picvrv0mFw031MDmB9x7wpPJ/3bnFIlHrr2qiFHoywSUxPhEg/Qy2iPhoZs4DjaZpRIH0OKdO26uAJZfqDSPM5zDDmAePxjgad9FuytkAeN16TrEJgmhixg31fWFsmwrVXtc2N8gWwzxAPtc5JRx+N/LPTUwPRd5fLwyiqJwQT2z9I9V6fO8BOSmqB42BNO8QDLJmTKxE6rpOXNo2Vuvw2ydGymWUPHeuO6PaoG0PmFeGCeQuMrhkrOml3S9/0FZh0Cg84w9h3dbpmsnppr1n54Y7Yc3FGgOt6fXDVMjuwtki+N59H19IRt0u/DBWpfdPAhHro2snWCrJtTJTE1ES7xAJAMvCYcx6ye62TFpGyz1uXFGWqehz5OAPGARDS+cphkrtipJojr2qJhaWoeDPbFlSZcWdI1TMRHm7S82SMmEJ1Oj08268mLt8rARlWTz5teO0Jmdl8ra4znaH7DSHN9KFA8YjcUD4dRn+IBcIUBVy+OHz+ubtNqrc3b0k3VrBQYHWpdh3zo9ZiLYN030RAG635ga/4GVRua3sBnfb+UqisnYOPhVWZt2Y6qKyehEE7xANvyk9RxoH3itvteYcAkeX2cmiKjTXQdbaXX4+qSdV98KaF1P7CjIFXVBqe95bN+QGrVlROQc2iZWdNDv0KF4hG6eIBehjBUGv/3mDjew+hoo+Ora7hSgZo/F8zz1BcZYqLX6WFEmhcTi3z2ATtLq64Q7DYe6/W3GJJj3bdDVolZQwfdWquJcIoHwBUOHAfap68hHtb2uXRRvnmcVv5uyAfqcw350Os+9EqZ5uk11dtnf5nnqgfYWlzVPtYrJ6CdIUG6Nnp77dqH4mFPuMUDoHN97OgxOW4I+9JxmUoqdA1XKlDzB5PIUc9atdNcN+ErzzAizbAWcT77gPwDxWYdHW29voffLXzn9TN+33tr6FxbazURTvEAS4Ybf5uN40D7QDys7QPJ0MdpBRPGUU9ftt1cN/mbVeZ+AF+MaN0HFB8pNesHdhSa6/2HWc3uud6sYe6ItVYTFI/YDcXDYdS3eOATc3yCjs4s5l7EWYbv4JN71HzwDhcCGHKl1/dIetxcD3CLXJ/9DKo+nX/cZ711P6CPCWDYkn89GOEWD30smQfjVPvoOTDAvn2qXg/aSq+v3j5P+u5nYL16YV1v3Q+cWPtQPPw7m8HAFQh8ao4vyqswOgD9LJ/q45N71PzRnW988q7X/dx4Hr0fwLJ1H2AdLoTHej1+jnVf3J5W1zA0y1qriXCLh26fVuklqn0GbalqH7SDPk4robQPhmZZ9wHW9vmFZX0424fiYU8kxANDqJpfP1Jm916v7sq0cnLVp/roZKPmD+5MhTo+edfrcCVD7wewbN0HWIcL4bFejysE1n0xHEvXcHzWWk2EWzx0++CuVGif1dNzzVrN7VP1Oqq1j/GarfsAn/a5LrT2sd7eOBQoHrEbiofDqG/x0PRNeVEGpr1u29F1E+EWDw2GUKF9MBzKru4WKB61Ew8NbgmL4VR6HoJbCbd4aNDJR/v8ZpZ93S1QPOyJhHhoMGQHE6n1PAS3Em7x0Oj2wdAnu7pboHjEbigeDsMp4hEtREo8ogWKx48Tj2ghUuIRLVA87ImkeEQLkRKPaIHiEbuheDgMikd4oXgEh+JB8aB4BIbiYQ/Fo2YoHsGheMRuKB4Og+IRXigewaF4UDwoHoGheNhD8agZikdwKB6xG4qHw6B4hBeKR3AoHhQPikdgKB72UDxqhuIRHIpH7Ibi4TAoHuGF4hEcigfFg+IRGIqHPRSPmqF4BIfiEbuheDgMikd4oXgEh+JB8aB4BIbiYQ/Fo2YoHsGheMRuKB4Og+IRXigewaF4UDwoHoGheNhD8agZikdwKB6xG4qHwwineExYukSGruoi/dZ+HLOMWDlIJscnVWub8UsXy5BVnW33iSVGrBxgtM/6au1jJVrFY8DijfLCnB3yzxn7YpZnjdffd9HGam3Tz1j3XIy3DXjGaIPeNu1jheJRnXFTUuWHVouk3eOTYpauzRfKmAnJ1dpm7MQU6dZioe0+sUTXZguUoPq3jxWKR3SG4uEwwikeU4wO9/ilC2Xs8mkxy8SlS2VqfEb1tknYEPNtAyYuTbBtHyvRKh7jluRKt0WbpM2CLTHL98brH2O0g3/bjDXWoWa3TywRqH2sUDyqM3lelowctUEG91ods+DT/ElzM23aJjPm2waMHLHetn2sUDyiMxQPhxFO8SAkHESreBASDigehEQGikd0huLhMCgexGlQPAgJDMWDkMhA8YjOUDwcRjjFY1p8hkxJWC+TE9bELFPik412yK7WNhhexLaxbxt/olU8JsflysgleTJw8caYZYTx+icZ7WDXNqjZ7RMr4L2BdvBvG38oHoREBopHdIbi4TDCKR6TEpbLiBWDZcjqr2OW0csnGB3slGptM3HpMqNtBtnuEyuMWT7RaJvUam3jT7SKx9DFedJw3ja5b/bumOVD4/UPNtrBv22GGOtQs9snVvjIeP14j/i3jT8UD0IiA8UjOkPxcBjhFA/eTpe30w0G7niGSfb+beNPtIoHb6fL2+kG4zbj9fc03iP+beMPxYOQyEDxiM5QPBwGxSO8UDwCQ/GgeFA8AkPxCAzFg9QFFI/oDMXDYVA8wgvFIzAUD4oHxSMwFI/AUDxIXUDxiM5QPBwGxSO8UDwCQ/GgeFA8AkPxCAzFg9QFFI/oDMXDYVA8wgvFIzAUD4oHxSMwFI/AUDxIXUDxiM5QPBwGxSO8UDwCQ/GgeFA8AkPxCAzFg9QFFI/oDMXDYVA8wgvFIzAUD4oHxSMwFI/AUDxIXUDxiM5QPBwGxSO8UDwCQ/GgeFA8AkPxCAzFg9QFFI/oDMXDYdS3eCTumSgbj6ySCbktbev1wYpdI9UxgVmbOtluE4hwise6vVPVMYzNbmZbrw9W7R5rts30jV/abhMIikftxaPBhmKZsqtCXkgssq3XBy+tLVLHBBqllNhuE4hwikfD5BJ1DE+tcU7bvLHe8/8F3k+qXdtQPAJD8SB1AcUjOkPxcBj1KR5r9oyXuO39Zd7WbrJ2z2SZlNvadru6ZPmuEZKwY5A6JoCO9uzN39hua0e4xGPt3smyZHtfdQzr9k6RCTktbLerS1btHiPxOwaabbN693iZsekr223toHjUTjwaJBVLi/QSeXltsbTJKDU6/MW229UlL6/zHAuOCTRLK6mVfIRLPBoaP7O58bNxDJ9nlsoza+q/bd40pKOV9/8LfGoc3/vG/6HdtnZQPAJD8SB1AcUjOuM48Rg5fY088PhL1Rg4Ls52+x/DOw3bSLeB02xrNfH0S+/JsMkrbGvhoL7EAx36hB2DZWDaa2p5St7nRkd2nEzOa1Nt27pkR2GaTN/UwVxO3DtJEvdM8NkmGOEQD1wFijfkp3/qK2p52sYvZI3RyZ+Y06ratnXJ7M3fyuD0N83lDftmyMrdo3y2CQbFI3TxwJWOlkYn9t+LCtTyVXEF0jqjpN7lo+emMkOGSs3lF43jmbarwmebYIRDPD5MLlGd+n8s9LTNdUbbtDHa5tl6vvJxx7JC+e9izzGBt4z/w7E7yn22CQbFIzAUD1IXUDyiM44TjwFjF8spp54qL77RSH72s5/LUy++K2f++jfSpd8k2+1/DE3afG+8oefZ1mri7HN/J72GzbGthYP6Eo/88r0yKutjn3WpB+bK0p1D1JUPdPZnea80DM1ooJZxJcK6PYZEYT0Ykv62Wjd7c2e1PDHHM3RrfE5ztTx3y/fmfv1SXzb3A72TnzFr84zthhk/Ty/Xh3gUVxw2juE9n3UZBxerq0NT8tqp49FXGoZnfKCWUdPb9kh6XF2d0K9vUNobaj3aAMtoEyyjjbA8x2gzve8AQwT1frgi1TP5SbOmmbuli6qv3DW6VldiKB6hi8fM3RXyfKKvZKDDPXRruVxidLi/yi41P03/5Ywjahn8YnrV9m+tLzbXXxtXqNbdurRQLevhSRfOz1fLn6T6XrXAJ/d63wvm5Zvr71leKDfEe54L1Id4LNxXKY+t8pUMXHnpY0gROv445reNTj/W/2amp22+zCqVk6dVbf+e0Xb69V25xCMLdxnigGX93H9f4HmujyxXdE4yaJfp2Q/8aW5V22ju9D4PrsT4H2cwKB6BoXiQuoDiEZ1xnHiMmpEoz7/eUCYvyjQE5DR1deH19z6VwRMSbLevK6bF5cgb77dUIvTSW41lyKRlttudKE4Uj8m5bWRrQZLR2V6k1kM88PhQ6Q613CPpSVm2c6jRMUYHGWIwSUnI0Ix3jU70d7K3eKOqY9vxOZ/KpiNrJO/IKrWMKyzLd44w9wPLdw6XvikvqLoVdPLRgZ+a93m1WiAiLx6fy/aCFEnZP0etH2GIR9ahONlXskkt90p+2njtw4zXNbHq9e0aocRs3tausr9ki8Tt8EjKxNxWsiV/nWQfSlDLg9LfVNtWtc1E9Vy9k59VdY1HYCYp8UD7WmvBoHiERzz+ZYjH6O3lknioUq2HeHTOKZWjx4/LObM8HeHX1hWrznYnowMMcEUAVwZuM8Rj3t4KGbbN80n8RYZ4DN5aJjmFR9XyzwyaGp14dJz1vpCQvy6o3sG+wujk4yrMK7W4ChNp8bjMOKbxO8ol4YCnbc4yxKNrXplUHjsupxvthHUQMv+2ucqQj7sNqVq0r0L6bfa0DcRjhNFOKfmetjnVkDpcaeno1zZ/sYgZgMCgBvF4hOIREIoHcRoUj+iM48RDYxUP/9qX3w+TBo0/V3zTa5xa13fUAnOd5qPmHX32w5UOXes/epFPDfQcNsdn/6Ztu5m1qUuy5bRfnC5DJi6VP/3lYuncZ4LPvuHCieKBx/E7BpjiAcZmNzXFAx3hY8ePqm0xDwIcLt1lTnZGp1yLB5i/tZspHmOzm6iOvd4PlB81OnSGtOjtweS8tmroF+TDur4mIi0eeAwZ0OIBIBBaPPqnvqTaBu2nXx/aWg9hQ5tq8QCLt/U2xQMT/AvLD1japp8cPVZhyNrr5vZWONTKl7oSDzzGsB4tHgBXOsqNzrUWjw1HjkqX3FJ5L6lEEb+/Qs2JQO0D43m0eAB84q/FA53rMuN50JHX+2YbtYf9OtBXGPt8ZnS6XzUEx7q+JiItHnj8wMoiUzzAWUabWMUjs+CofG2Imn59Kw5WqjkjqEG6tHiA/yUUmuLxm1lHjHPruHxsbKv33VR8VO5abi8XHGoVHIoHcRoUj+iM68Sj4w+j5Inn35Zb735EgTda5z4T5dve4+XSy6+TX/3mbLN2x31PyCetjc6V8VzYF29MrP/N2edKiy96+jwvpOPlt5uY+6ID9X8X/t2sx4p44BN8DG/CJ/K1FY+cw8sk81CcyeisRqpek3iUHy322Q/o+RRgUu5narI75EOvC5VwigfmdqBtcCWiduJxTMmE9fWNyPxQ1WsSj9LKQp/9gN3VIEDx8CUS4nFtXIEazoQhRLUVD1zZwCf2mgdXeoZIhSIeuGpg3Reiobe/3DgWTDB/pZbSAcIpHhjyhbb5z6KCWovH7D2+bYMhZKiFIh5jtvu2jZ6H4w/FIzgUD+I0KB7RGdeJB34xftziG3P5tQbN5d6Hn1OP2349QC659CqzNmrGWvnpT38q4+cmm+vAZVfdWE08MJzrnoeeMZcxjwOT2vWyFo+GRscHf2SiTTzSDsxXQpB6YJ5sPLJa3S1p7Z5JMtN7+9pQxKOf0cnW9fE5LWRA6qvqcU3icbhsp1kDUzd+bs7zwPMk7ZtpdOY/89kmVMIhHpAMDGdKO7BAtc0SQzhwa119Racm8Th6vNJ8PbreP/Vl9bgm8dhfstmsAcgPhm/h8USjrp8HUDx8Cad4YPgP7hb1dXapTDMkBMN2MMwHn7ajHop43LK0ai7GpUbn+OL5nloo4nHu7KrhQ+jg/26OZxmd/PbGsby8NvQhRFbCIR4YJvVhcrEaXoa2gQTh6gvmbaAeinhc453zAjA8C3Nd8Lgm8cBwtjO8zwNuMuq6razPAygewaF4EKdB8YjOUDy8+IuHlSmLM6VD1xFy2dX/k/9cdq2i8Wffqee32/5EqC/xAOhYz9vSVV1h2FaQLIuMTrCuzdr8tdGxna5qALWCsn1qTkGvpKfV9lPz2pt1dNbHZ3t+NiahYx6HrmEi9I7CdHWFZXjG+5J7eIVZA5vz15rDiXBXq+W7hvvUh6a/Yx5XTYRDPACuNGC+Cn7+TuPYIU+6hvW4xa4+PlwJOVy2S8ZlN5O+Kc+rtpmc29asZx2KlzHZjdW+yw1pWWpIma6tN4QG24/KaigjDbIPLTVrmOS/NX+DKXiQnQVbu5t1zPPAvBF9XDVB8QhdPADmT2DSNyaED9hSJt03ej7RB7gCMcqQB9QAPrGvMDrXDxud7tMMeRiwpVxeMeRA1781OunPeb8LBFcLuuWVmTXMedhefFQJBiZgz99bIfev8NTAkK3lcoPRwca+uKtVv81V+4JAn/jbEQ7xAF8Y8tHQkA/8/GFby+SbnKq2uc54HbgypI/vIaNNIB5oI7y+YUbteaMtdP17oy2eWO1pm2eN9d/lVr2+D4yfsbHoqHpOzKXBHBDM4dB1XPG4aomnbTCUDeha45RiaZvpO2k/GBSPwFA8SF1A8YjOUDy8+IsH9ullvOnxePSsdXLSSSfJuDlJZv3vl1wm7b8bYi6Hi/oUD5B2cKGaDI4hPvheiAFpnqsWYPrGDqpmBR1hXccka71+dJanY62J2zHAZz+Qsn+uqg1Oe8tnvXUoEa7EWGsgbns/s14T4RIPkHUwTv38sqNFsnLXKJ/hYLjjl/9xbjyyRtV6JD0hO4syzfV6mJVm2Y6hPvuBpH0zVA1DvPS6PcU55tUOTbIhH7o+Z8t3PrWaoHjUTjwAbqm77vBR2Vl6TA3x+T/LRGbc3Qo1f/4w11PvbwiCXvekt2OteXBFkc8+YIHRqdb1hcZjvV7f9Ql86j0eK98bHXVdr4lwiQfAlRf8/N1G20CO/my5wxSGg/kfJzhnlqc+fFtV20DW9H7gcaOtrPsADH1DDXe1Wnag0lz/b+8tfTVNDFHUtdaW2w6HAsUjMBQPUhdQPKIzjhSPqYuzjDfcPDn5lFPU3I3JCzPM2n2PPi8NGreXfqMXKjAv4+mXPG82iMfFf/+3Wes6cJr84U9/kQnzUlQdnXSs/+e/r5R3G7VTj8cYUoHah806yIOPv2Tu+9lXfeTK625R80O6DpwqP/nJT+SHQTPU1Q88zwUX/1MJ0Li5VTISDupbPDQb9k5Xn9ov3NbTtu4WwikeGlxpQNvg6pBd3S1QPGovHhp8C3Zu0VH5Jqd2nVmnEU7x0GBIGtrmi1pcXXAiFI/AUDxIXUDxiM44UjxGz1grv/r12Sb9Ri30qT/4xEtm7XlLJx3ige/+0LXf//H/fPb7x7+vMGua95t8YdYbtepsrr/q+lvVusETlvpsP3TSMvmn0aHRy5917GvuHw6cIh7RQiTEI1qgePx48YgWIiEe0QLFIzAUD1IXUDyiM44Ujx/D1CVZ0qpDbyUXkyxXSNwGxSO8UDwCQ/GgeFA8AkPxCAzFg9QFFI/oTNSIBzpHuNqBuRgYbmW3jRugeIQXikdgKB4UD4pHYCgegaF4kLqA4hGdiRrxmLggTUZMW6WIxN2m6gqKR3iheASG4kHxoHgEhuIRGIoHqQsoHtGZqBGPaIHiEV4oHoGheFA8KB6BoXgEhuJB6gKKR3SG4uEwKB7hheIRGIoHxYPiERiKR2AoHqQuoHhEZygeDoPiEV4oHoGheFA8KB6BoXgEhuJB6gKKR3SG4uEwKB7hheIRGIoHxYPiERiKR2AoHqQuoHhEZygeDiOc4jExIUGGr+wtA9e0jllGrhgpU+J9v7keTFgaL8NW9rTdJ1YYtWK00TaeL9cMRrSKx6DFefLW3O1yg9HBjFXeMF7/AKMd/NtmoLEONbt9YoU3jdeP94h/2/hD8SAkMlA8ojMUD4cRTvGYGp8qk5YuNzrZi2OWSQlrZFp8VrW2mcK2kckB2safaBWPCXG50n/xRumyaHPM0s94/eONdrBrG9Ts9okV8N5AO/i3jT8UD0IiA8UjOkPxcBjhFA9CwkG0igch4YDiQUhkoHhEZygeDoPiQZwGxYOQwFA8CIkMFI/oDMXDYVA8iNOgeBASGIoHIZGB4hGdoXg4DIoHcRoUD0ICQ/EgJDJQPKIzFA+HEd7J5ekyOSFRTaKOVSYnrLedQO1pmzW2+8QKU1TbZFdrG38oHoQEhuJBSGSgeERnKB4OI5ziMTFhmYxYOUAGrfkyZhm1YqztLWMnLF0qw1f2s90nVhi9fLy6u5d/2/hD8SAkMBQPQiIDxSM6Q/FwGOEUD36BIL9AMBix/gWChIQDigchkYHiEZ2heDgMikd4oXgEhuJByIlD8SAkMlA8ojMUD4dB8QgvFI/AUDwIOXEoHoREBopHdIbi4TAoHuGF4hEYigchJw7Fg5DIQPGIzlA8HAbFI7xQPAJD8SDkxKF4EBIZKB7RGYqHw6B4hBeKR2AoHoScOBQPQiIDxSM6Q/FwGBSP8ELxCAzFg5ATh+JBSGSgeERnKB4Og+IRXigegaF4EHLiUDwIiQwUj+gMxcNh1Ld4JO+fJTsK02RyXhvben2SsGOQzN3cxbYWiHCKR9qB+aptJuS0tK3XNakH5qrjsTJ/azfbbe2geBBy4lA8CIkMFI/oDMXDYdSneCTtmykLt/aQ6Ru/lPV7p8vUvPa229UHS3cOlvzyvbJ85zDbeiDCJR6pB+YZnfofVNugnSbn1r+Y7SnOkRW7Rqpj0gzLeM92WzsoHoScOBQPQiIDxSM6Q/FwGPUlHhv2zZBF23pL/9RX1PL4nE8lcc9EmWZ0Zv23rWuW7hii2FqwoV7EI2X/HEPIekq/1BfV8sTcVrJ2zySZkvd5tW3rEojHlLy2trVQoHgQcuJQPAiJDBSP6AzFw2HUl3jgasKorI991mEoz9KdQwz5+MLofM81h/EMz/xALa/aPcZn+/V7p6r1YFhGA7VuwdYeanlKXju1PCn3M7W8aHsfcz/Ijt4P9E5+1qwl7BhsHMNQ9Ul+yv7Z9SIexRWHq11JyDi4WOK295cZmzqqY567xTMEbFRmQ7WMKxF62x5Jjyux069vSPpbav2i7b3VMtoEy2gjLOOqk953UNob5n7JxuvvmfyUWYN4bDqyxqxPym1t1kKB4kHIiUPxICQyUDyiMxQPh+FE8cDVj41HVhud7UVq/eD0t9Vwo0OlO9Ryz6Qn1dWRZYYULDMkAazZPV5GGIIyfWMH2VWUpdZh2zHZn0j2oaWSd2SVWkbHOnHPBHM/gOfql/qSqmPewvRNHdRjJ4rHhNyWsvnIWuPY5qj1Q9PfVY/3lWxSy72Tn1FXR6yvb43xeiFmMw1p2VOcK3E7+qttx2U3ldzDK4z2SVDLQ9LfUdvq/SBgicZz9Ul5XtUhHhgCpusQwdrMzaF4EHLiUDwIiQwUj+gMxcNhOFE88Dh+xwBTPMBYo5OsxQNXKI4dP2p0kserT/pBftleNecAdXTE0THW++LKiRaPsdlNpKQy39wPVBwtlaEZ78rCbT2NzvRYGZ75vvd5nCceeAzh0uIBMBRLi0d/Q6DQNpAC/foKyw+YgoA21eIBFm/rbYoHpKao4pC538pdo+TosQoZmPa6Z9vtfVQ76X1xVWXl7lHmck1QPAg5cSgehEQGikd0huLhMOpbPGZt/sboCA9QHe3aigc+fU8yOr+akZkfqXpN4lFWWeizH+iX+rL5ST6OB+wsTK9X8Ziz+Tt1HOjs1048jqlhUtbXp0WmJvGAlFn3A/qKx+zNnWVw+pvmvhQPXygepC6geBASGSge0RmKh8OoL/FYt3eKLNne1+i8TledYQzrwTCfqRs9d7YKRTz08CiA/QaleTrFNYnH4bKdZg3M2fKd0bl+Tj1evnO4+rngUOn2ehEPdOgXb+tjdPpnquPAvBMMB5uc65nYXZN4HD1eqYZc6TquBA1Me009xvMFE4/9JZvNGpi75Xvp5X0u/8nlFA9fKB6kLqB4EBIZKB7RGYqHw6gv8QDr906TRdt6ycxNndTVBdzlStfQWV63d7KqAYgJhgxh4nnPpKck5/By9Qm8rqMjPibrE7UvngdDhXQNn9rvLspW34fhuXqwyKyBrEPxMiDtVfNnAwjKlvx1knlwsXklJRTCIR4A32+CSd84Phy79fsysA4ioo8fr/VI2R511ysIFNoGV5J0HVeGRmU1VPviqgnkStfQbmh7zKvBHJm0AwvM2sxNX0vOoaXSN8Vzd621eyfJYkMWdR2iONv4Ofq4aoLiQciJQ/EgJDJQPKIzFA+HUZ/iAXDFY1tBkppbABEZ7L0DE8Bdl1CzknNomVnPO7zSXK871pqFhtBY9wNrDZFBDRPMrev1UCIry3cNN+sLtnavVg9EuMQDQArw80sqj6gJ49ZhTphEr49Pk3lwiar1SHpCNuUnmuuHe4dZaZZs7+ezH8B8GdQwwVyv25K/XnomP+2zL9pQ1yEf1lpNUDwIOXEoHoREBopHdIbi4TDqWzw0uCsVhvJgaI9d3S2EUzw0uPKDtpm9+VvbulugeBBy4lA8CIkMFI/oDMXDYThFPKKFSIhHtEDxIOTEoXgQEhkoHtEZiofDoHiEF4pHYCgehJw4FA9CIgPFIzpD8XAYFI/wQvEIDMWDkBOH4kFIZKB4RGcoHg6D4hFeKB6BoXgQcuJQPAiJDBSP6AzFw2FQPMILxSMwFA9CThyKByGRgeIRnaF4OAyKR3iheASG4kHIiUPxICQyUDyiMxQPh0HxCC8Uj8BQPAg5cSgehEQGikd0huLhMCge4YXiERiKByEnDsWDkMhA8YjOUDwcRjjFY2LCMhm+sp8MWtM+Zhm1YoxMiU+u1jYTliYYbdPXdp9YYfTysUbbpFZrG38oHoQEhuJBSGSgeERnKB4OI5ziMTU+TSYlrJaJS5fGLLjaMS0+i21jQ6C28YfiQUhgKB6ERAaKR3SG4uEwwikehIQDigchgaF4EBIZKB7RGYqHw6B4EKdB8SAkMBQPQiIDxSM6Q/FwGBQP4jQoHoQEhuJBSGSgeERnKB4Og+JBnAbFg5DAUDwIiQwUj+gMxcNhUDyI06B4EBIYigchkYHiEZ2heDgMigdxGhQPQgJD8SAkMlA8ojMUD4dB8SBOg+JBSGAoHoREBopHdCZs4jEzIc/2P4LUDooHcRoUD0ICQ/EgJDK4STxmJuTKHopHSAmLeBSVlMuqlJ2yOHELOUGeeuFNeeWtj21r/kA8xkxfYVsjJFy0+aqnXHP9LbY1f66+7mZp27GXbS0cNG3zrdxy+322NX/+/d+rpGO3IbY1QsLF4HHz5VxDPOxq/jz1wlvG7/eGtrX6pnm77+R/t91jW/Pn0suvka++H2RbIyRcDB2/SM42xMOu5s8zL70jL77+oW2tLliZvEMO55d4e8VMsIRFPJjwpXHjxtK2bVvvUvD8+te/lq1bt3qXGCYyGTdunNx7773epeC55557ZPz48d6l8GfQoEHy5JNPepeC53//+5/MmjXLu8QwkUlaWpr88Y9/9C4FzyeffBLy7/e6zpAhQ+Sxxx7zLgXPzTffLDNmzPAuMUxkkpmZKb///e+9S8HTtGlT+eyzz7xLjJND8XBYKB6M00LxYJjAoXgwTGRC8YjOUDwcFooH47RQPBgmcCgeDBOZUDyiMxQPh4XiwTgtFA+GCRyKB8NEJhSP6AzFw2GheDBOC8WDYQKH4sEwkQnFIzpD8XBYKB6M00LxYJjAoXgwTGRC8YjOUDwcFooH47RQPBgmcCgeDBOZUDyiMxQPh6U24nHjjTfKnXfeqTqFhESKW265RRo0aOB91wWPk8TjlVdekVtvvdX2NRESLu644w656667vO+64IkW8Xjttdd4bpGIg3MLhBKKh3tC8XBYaiMeCQkJMnHiRPWJNCGRYurUqZKUlOR91wWPk8Rj3bp1MmXKFNvXREi4mDRpkixfvtz7rgueaBGP9evXq98Ldu1BSLhA/ybUc4vi4Z5QPByW2ogHwzgtThIPhnFaokU8GMZpoXi4JxQPh4Xiwbg5FA+GCRyKB8NEJhQP94Ti4bBQPBg3h+LBMIFD8WCYyITi4Z5QPBwWigfj5lA8GCZwKB4ME5lQPNwTiofDQvFg3ByKB8MEDsWDYSITiod7QvFwWCgeVZk3b57s3bvXuySydu1aycjI8C6Fnvnz5/s8DxO5UDzqLqtWrZLc3FzvkqjHWFfbYJ+cnBzvEhPJUDwYJjKheLgnFA+HheJRlcsvv1zi4uK8SyLvvfeedOrUybtUPUVFRbJo0SLvUlWuuOIKWbJkiXeJiWQoHnWXF198UXr27OldEvUY64IF5wfOE2tefvll6dGjh3eJiWQoHgwTmVA83BOKh8MSTvHYtm2buge2leTkZG/1xFNSUiKJiYnepZqzffv2kI8H38GADibuF6/z7bffypdffilbtmzxrvENPvH97W9/612qCsWj7uIm8Thw4EC19yM+/T9+/Lh3ixPPmjVrpLS01LsUPAcPHqx2PCtXrpRjx455t6gKvtH3gw8+UPe518FjrEMtUM4777xqVzcoHnUXigfDRCYUD/eE4uGwhFM82rdvL2effbb84Q9/kDPPPFP+8pe/yLXXXuutnng2bdqkvr021PTt21fOP/98+fWvfy3//ve/FQ899JDtMI8LL7zQRzp0Pv30U2nZsqV3yTcUj/qPm8QDX/x2xhlnyEUXXSSnnHKK/P3vf5fTTz9dKisrvVuceG688Ub1AUAoWbhwoVxwwQVy2mmnmefHZZddJhs2bKh2TA8//LCMGDHCu1QVrEMtUCge9RuKB8NEJhQP94Ti4bCEUzy6du0q7dq1U521J554QuLj41VHvz7TvXt3eeWVV7xLoq6Y/O1vf/MuebJjxw4lSKmpqd41VenYsaO0atVKDh065F1TFYgHRGvr1q0+oAOHb0HVywUFBd49mHDHTeIxe/Zsee6552T16tXyj3/8Q/bs2aPei+EUj9pm8eLFcuWVV3qXRF0tgRTt27fPu0bUfCUcN8TJP1iHWqA5TRAP/B6wnh/43fDFF1+Yy7jywkQmFA+GiUwoHu4JxcNhicQcDy0e/sGQkiNHjsjhw4cVR48eVesxBlyv02BYlU5FRYW5Pj8/37vWN4WFhT77l5WVqfUQD3SM9PqEhAR1RQLRx4MrMxiCZd3fSocOHeSjjz6S4uJitZ8OxOOkk05SV1SC0b9/f+8eTLjjxjkeWjzsAknV77vy8nK1DueC9f0I8H7XwdAoa02fV9b4P4d+L0M8cJVDr4cMnXvuubJ//35Vx/GgjSdMmOCzvxXUsI2dYEM8fvnLX9qeF5pGjRp5t2bCHYoHw0QmFA/3hOLhsNSVeKCTj47JT3/6U9VZB0lJSWr9/fffLz/5yU8UuoaOvh77vmDBArUOdQyd8g+2u+mmm8x9sd0333yjahAP6/NeddVV5vOiM3byySerThaGWul9rdvjMYZaYWjISy+9pPbTCTTUiqm7RJN44H353//+13zvjRw5Uq1r1qxZtfflHXfcYb6Pd+/eba7HNhs3blTrdbBdgwYNfLbBcCcE4mF93lNPPVVd9dDPrYcNYjiV3te6PR6jhm200FtjN9SKqbtQPBgmMqF4uCcUD4elrsRj165dqhOCT0hx1QJcc801smLFCvXpKzp33bp1M2sYtvXuu++qfTEUBetwe1s78bj++uuVnOh9X3/9dR/xeP75583a0qVL1d2rEHSuIEP4xBifIKOOMfJjx441t8ensRAPfPpsvQqDUDzqP9EkHhiih8nd+r0H0R04cKASgdatW8s777xj1mbNmiU333yz2g/vX70eQ//8xeONN95Q4qy36dy5s4944IqHrmGIFZ5DX/HA1UicfzhHUX/rrbfUcEq9Pa7mQTywjf/dqxCKR/2G4sEwkQnFwz2heDgsdSUeO3fuVBNrrcNALr30UiUCCIZDYTK4zg8//CCvvvqqd8mTrKwsW/HAp8QYQqWD+Rh62EcoczysueWWW2T69OnepZonl+MKzh//+Edb8L0gTGQTTeKBid64CqgDYe7Tp496jLurffjhh+oxgonhuHrnn3POOaeaeLzwwgvSu3dv75JnWKKeVxHKHA9r3n//fTXvSSeUyeW/+93vbM8PnONMZEPxYJjIhOLhnlA8HJZoFA9raiMejz/+uBqvbh2rXpN4nHXWWZKenl6Nq6++WqZNm+bdkolUKB6+CUU8rKmNeGDIV5cuXcyrIUgo4oFJ9f7nB17bV1995d2KiVQoHgwTmVA83BOKh8MSjeKBL/0bPny4elwb8fD/AkEkkHjguwseeOABNfzLLrjtL8Uj8qF4+CYU8UB7ff755+pxbcTD/wsEkUDigaGJmHeFb/H3H6KI4Ps/KB6RD8WDYSITiod7QvFwWMItHri95r/+9S/1SWfz5s29az0dmhkzZsjdd99tgsmz+ja1EI9LLrnErGFffXtbfLkf1mH+BTpFehuMMUcwT+S1114z12N+B77zY9SoUaqD9/vf/96sYdy8lh1rMOYdnSj/W3sGEg8Ix8UXX+xdqh6KR93EbeKB9zJu3Yzv73jmmWe8az2BPEMS9HsVc570d3JAPP785z+btTfffFPNB0HwntXrcbMEdPjxWH9ZZkpKivojqbfBlQusW7ZsmZIXfOeOrt13333qCoW+o5ZOmzZt1Lwr3P7WmkDigbvKYaI67pJlF4pH3YTiwTCRCcXDPaF4OCzhFg9MJMVwJYD791uDCaj4tmNdx0RzHYgHJs/qGr7ETAedF73eir5lLoK76uj1+hPfjIwMn+0BPin2D6QFfwS1BGEMOzqbAF+K6P/9HljGJNs5c+Z411QPxaNu4jbxsL6XIeL+wRUCXbd28iEekAJds55bkHq93or1qgWER6/XX5SJ76+xbg/wwYH/7XghHZAg/Q3++MBAnx/o2EJgrMEtqp9++ml1kwYcm10oHnUTigfDRCYUD/eE4uGwRGKoVW3z/fffq9vZ4ooGPm2t66AjZZ3Xgc4fOpxAf2psDe7QNXXqVO+SfXDXIf9Ph5nwx41DrWobfBklhkPhiuCAAQO8a+su/u9lDFfU54f/0EQEQ6vQqQz2xYi4SmkdVsZEJhQPholMKB7uCcXDYXGCeEyZMkUN4wDo1DBMqIkF8cAQLH1+zJ0717uWYWoOxYNhIhOKh3tC8XBYnCAeDPNjEwviwTA/NhQPholMKB7uCcXDYamteOA7LjDeG19CRkikwBfe4Usha4rTxANzL3r16mX7mggJFxieivk4+hvmA4XiwTCRCcXDPaF4OCy1FQ9Mmsadd95++21CIgY6+88++6z3XRc4ThMP3HTg0UcftX1NhIQL3CL8iiuuoHgwTD2F4uGeUDwcltqKB27p6X+XJ4YJd3DHsBtuuMG7FDhOE4/7779fxowZ411imMhk+/bt6jbIFA+GqZ9QPNwTiofDQvFgnBiKB8MEDsWDYeo3FA/3hOLhsFA8GCeG4sEwgUPxYJj6DcXDPaF4OCwUD8aJoXgwTOBQPBimfkPxcE/CIh74ZXu8slyOV5ATpdHHDaVN689sa3b8+U9/kpQN621rhISL2TOmy/XXX2dbs3L3XXfJuDGjbWvhYGD/fvLE44/b1uy47957ZfTIEbY1QsLFts0b5cxf/lKOlZfZ1jWNG30sbYzOkV2tvhk8cIA8+sgjtjVCnE6TTxpLq5YtbGt1AvrAx455e8VMsIRHPMpK5OjWdDm6cQM5QRq98ZK0afiubc2OP//+fEmaPcG2Rki4mDW4p1x/xX9ta1buvvkGGdvjW9taOBjwdTt54r47bWt23Hfr/2RUt062NULCxZZlc+XMM86Qyrz1tnVN4zdfktYfvWNbq28Gf9teHr3ndtsaIU6nyduvSKsP3rKt1Qlb0uR4cYG3V8wES5jEo9j+P4LUGooHcSIUD0ICQ/EgpH6pd/EwOF50xNsrZoKF4uEwKB7EiVA8CAkMxYOQ+oXi4Z5QPBwGxYM4EYoHIYGheBBSv1A83BOKh8MIt3jk5y6VvKyxsiGzb8yyJXuSlOStqtY2R3LjJTfG2wagfYrzVlZrHyvRKh4Hc5JkfnKG/LA6L2aZviFTdmYlV2ub/dlJMi/G2wZM25AlO2zaxwrFg5D6heLhnlA8HEa4xWNX9iyZl9ZOBiW/HLMkpH8jh3PjqrXNzuwZMjetje0+sUS80T6HchdXax8r0SoeGzNS5JOlm+UPMw/ELK/FbZPEtLRqbZNttM3HS7fY7hNLvGq0z+rU4DdPoXgQUr9QPNwTiofDCLd47DA619NTP5XuSY/FLAvTvjA61kuqtc327KkyLbWp7T6xxIK09nIwd1G19rESreKRk5Eqb8Zvk59MPRKzPLpop6yw6VhnGG3zatx2231iiYeN9lmWklGtfaxQPAipXyge7gnFw2FQPMIPxSM4FA+KB8UjMBQPQpwPxcM9oXg4DIpH+KF4BIfiQfGgeASG4kGI86F4uCcUD4dB8Qg/FI/gUDwoHhSPwFA8CHE+FA/3hOLhMCge4YfiERyKB8WD4hEYigchzofi4Z5QPBwGxSP8UDyCQ/GgeFA8AkPxIMT5UDzcE4qHw6B4hB+KR3AoHhQPikdgKB6EOB+Kh3tC8XAYThCPibmfydwtXWRYRgPben0wPudTdUxgVNbHttsEItziMTG3lTqO4Rnv2dbrizHZn8jIrI9sa8GgeNROPC5fXCDPJxbLVUsKbOv1wb8Weo4J3JJQaLtNIMItHpd62+fqOOe0D7h4fr7cWMu2ARQPQpwPxcM9oXg4jPoWD3Twk/fPlk35ibJ0x1AZmvGu7XZ1ydjsprJ+7zR1TGD17rEyMjP0DnY4xWNcTnNJ2jdTHceyncMcI2eQsY1HVsvK3aNs68GgeIQuHv9ZVCBfZpXKjN0V0jG7VC4zOtl229Ul/zCko3WG55hAj41lcn186B3scIrHv432+TzTcyxfG+1zuUPk7EJDOn7YWCpjd5Tb1oNB8SDE+VA83BOKh8OoT/HAJ+aZB5fIuOxmannpziGyfOdwGZL+drVt65JNR9bI3C3fm8vLd40w5GiWzzbBCJd4jM5qLBkHFsmEnJZqOX7HAFmxa6QMyXin2rZ1zbJdw6Ww/ADFw49wigc6+J1zSuW5xCK1/MTqIumWVyaXGOv9t61LIEBALz+8qkiW7K/02SYY4RKPvy8okK+N9nl5bbFafsQ4ju6GBEFG/Leta55ZUyTZhUcpHkGgeBA3Q/FwTygeDqM+xWN/yWajU93CZ926vVNk9Z5x0j/1ZaPj3ciQEE8nu3fyM2rZ/8rDiMwP1XrQJ+V5tW5Q2ptqeWDaa2q5X+qLatl6NaVH0hPmfqBn8lNmzSnisbc4TybltfZZt2bPBFm7d5LZPkO9EtIr+Wm1XL19PjBfY9+UF9S6QWlvqOWBaa+r5b4pnvaxXk0J1j6aDftmUDz8CKd4jNpeLu8mlfise2VdsUzeVSG/nHFEXf34p1dCTjL4r7GMdadMq9r+gvn5ah347ex8te4c418sXzDPs/yL6Z7n+pdfhx3Prff91cyq9U4Rj6Fby+XDZN/2wZCrmbsr5Axv+1gl7VLj9WHdqcbr1evQBvo1njfH0x5nz/Lsi6sWWD7N2z64+qT3AxBDve+vLe2jeWtDMcUjCBQP4mYoHu4JxcNhOFU85m/9QUoqj0je4ZVq/ajMj6WgfL8UVRwyt8WVkV1FmXKkbI9izubvpHfKs7J69zgpO1pkdNLHq+1mbuokxRWHZVtBslrukfSk0ZlubO4HMORLd67dIB6Y81FccUQ25a9R60dkfKDap6SywNx2cPpbsqMgzXyN87Z0NeTsOVm5a4zRPoXG80xW203f2EG1687CdLUM6cBQKmv7TMhtVU0+KB7VqSvxuCG+QHaUHFOfqmP9qYZsZBUclaPHj5sd5vONjvTIbeWyseiYokVaiZxldKpxhWBv2TGZYjwPtvv3onzZZjzXHmOd/jn/Z3TIlx6oMPd9PrFIdeZRc4N4XL2kQLYbr2lTsec1/dQgLf+oVB47roQB69A+w4zn0K8Rw8fOmpUvz64pUu0za4+nff6+IF+2Gs9zqPy4+XP+bLTPkn1V7fPK2iIlg7oOKB7BoXgQN0PxcE8oHg7DqeKBx5APLR5geOb7PuJRanSyIRD49B9sKVivOuSooVOtxQPM3NRRtHgMy3hPddr1fiDf6FzjuVB3g3jgMV6rFg+Aqx9W8UBbjc1uZr5GzBNBm6KGttHiAaZt/NIUDwgd2tbaPodLd6q5L3p7QPGoTl2JBx5fFVdoiodmf/kxUzziDBmAMJxjdKYBhml95RUGyIcWD/DXBQU+4rHPeHyl0XnX+842OvMveoc0uUE88BhXgLR4aHaVHjPFY8G+SqM9q9oHw9q+zSlTtWeN59HiASBiVvGA9F1vyJ/ed5rRlq+v97SPhuIRHIoHcTMUD/eE4uEwnCAe+IS9Z9KTxrrHay0ex45XylELczZ3VrWaxOP48eM++4FRmY1U3WniYW2f2orHseP4FLzqNeKqB2o1iYdd+4zJamJuDyge1YmEeODT+pOneT61r6144BP+cgtfZHk66qGIR4XfvpAY1JwmHtb2qa14+LdPJ+/rCkU8/NvnVUNidB1QPIJD8SBuhuLhnlA8HIYTxANyUXmsTBZs7VFr8Rie8YH0Sn7GBJ101Gq+4nHYZz+Ajj3qThOPnENLVfss3tan1uKBIVPW16jbJ5QrHtb9gG4fDcWjOpEQjw5ZpVJ89Lh8l1taa/F4wpACzOHQ/Nw7/yMU8cD8COu+P/PWnCYebTNKVPv8kFdaa/HAsCrra9TtE4p4YG6Hdd+feffVUDyCQ/Egbobi4Z5QPBxGfYpH/9SXZHP+Opm16WsZkPaq0bmfKUt3DpXeKc+peijioSefg8xDS9R8DjwORTx0DewuypaRmQ3VY6eIRz+jfXAsszd3Vu2zft80WWEcC+ZpoB6KeKDN9HL6wYXqufA4FPHQNYAaJplb11E8qhNO8cCE7u5GZ7p5Won8bk6+fJxSIv03l5kTmUMRj4dWVn0K/1lGqbRID/2Kx0XzqyZTo5OPu2rhsVPEA+3zvSFjeF1onw8MCRm8pUx+422fUMTjce9rAmjnNsZz4XEo4qEn9oMBW8rNu49pKB7BoXgQN0PxcE8oHg6jPsUDDE5/U7IOxcvhsp1qQjhuqatruEvVvK3dVA3kl+9VQ4f2lWwy6o8bHe13VYdY1+du7mJ2yjEvAbee1bWiioNScaxMcg+vUMOWxmY3MWsAt6zVk6cHpb0uqfvnmrU1u8fJgNRXzOOqiXCJB8AdqDIOLlbHgfaBeOgaXuvczd+bx5lfvsdon2NyoHSb9Ep6WrXPtoIUsz5vSzfVptgX7YNbF+taYcUBdVUFoqMn3+samJTbWnDnLP2zE/dMlLLKQkN08tX3i+j1oUDxCE08AO5EhU4+BAMTniEAuoa7M9261CMfGkwu31R0VP65IF/+ODdfRmwrN2uYXI75CNj3TKNz/tJazy1fwWajg45hR6lHKuVko36RIS9x+yvM+ovGttgH++I5WqV7jgkMN44JP0sfV02ESzwA2qd9pudYIE64SqRrpxjt87/4AvM4AV4jXuuliwrUMQ8xhEHXMLn8XO+dvzBR/DnvLXEB2hRtm1lQqa5uQO4W7qtqHwyzst756/V1xep4CiqPywBDFvX6UKB4EOJ8KB7uCcXDYdS3eADcxnWMIQKQAtyZadH2Pmatb+qLqmZldLZnEjgYldXQXK9vF6vB7XSt+wHcXhY1dK6t6/3v2ISrB7qGzr+1VhPhFA+g2yf78FL13Rlx2/ubNbxmfZxVfGLUPMOicHtdvR63zdX7Afv2+VDVMCTLut4qHQBXRXRtkCGP1lpNUDxCFw+ADvJVSwrlm5xS2W90ZjvnVl1tgHyg5g86x6hfvKDAXIerAno/gCsn1n3AFUsK1K15UcftY/V6/9vF4o5Qunax5cpIKIRTPMAfvO2DifMHyo9JV0v74NbC+jitnO69AxWu6uh1eE16PwCRsO4DMOEec0lQx+2H9frfzKraD+DWvLqGq0nWWk1QPAhxPhQP94Ti4TCcIB4aDAvCnAZ0+u3qbiHc4qHBEDFP+9T/t7ufCBSP2omHBgJy+7LCat8n4TbCLR4aCAjaB0Os7OpugeJBiPOheLgnFA+H4STxiBYiJR7RAsXjx4lHtBAp8YgWKB6EOB+Kh3tC8XAYFI/wQ/EIDsWD4kHxCAzFgxDnQ/FwTygeDoPiEX4oHsGheFA8KB6BoXgQ4nwoHu4JxcNhUDzCD8UjOBQPigfFIzAUD0KcD8XDPaF4OAyKR/iheASH4kHxoHgEhuJBiPOheLgnFA+HQfEIPxSP4FA8KB4Uj8BQPAhxPhQP94Ti4TAoHuGH4hEcigfFg+IRGIoHIc6H4uGeUDwcRrjFY3f2HFmU1kGGJ78ZsyxP7yJHcuOrtc2u7JmGlLS33SeWWJ7+nRy2ETMr0SoemzNTpNXyTfL32ftilvfit8r6tLRqbZObkSLNl2223SeWeNdon7Wp1dvHCsWDkPqF4uGeUDwcRrjFoyB3mWzJniRpmYNjlu3Z06Qkb5VN2yTI5uyJtvvEEmifYpv2sRKt4nE4J0kSUtJlUGJuzDI/KUN2ZydXa5uD2UkSF+NtA+YlZcoum/axQvEgpH6heLgnFA+HEW7xICQcRKt4EBIOKB6E1C8UD/eE4uEwKB7EiUSreJTnbZD83CTZl50csxzJSZIyox3YNtUJ1Db+UDwIqV8oHu4JxcNhUDyIE4lW8dhrdC7HrsuSJsu2xCyDErNlU2ZKtbbZnZUso2O8bYatzZatNm3jD8WDkPqF4uGeUDwcBsWDOJFoFQ/e1Yp3tQrGU4t3SGJa9bbxh+JBSP1C8XBPKB4Og+JBnAjFI3qheASG4kGIO6B4uCcUD4dB8SBOhOIRvVA8AkPxIMQdUDzcE4qHw6B4ECdC8YheKB6BoXgQ4g4oHu4JxcNhUDyIE6F4RC8Uj8BQPAhxBxQP94Ti4TAoHsSJUDyiF4pHYCgehLgDiod7QvFwGBQP4kQoHtELxSMwFA9C3AHFwz2heDgMigdxIhSP6IXiERiKByHugOLhnjhOPPYkLpEGLz5djbyEWbbb/xi6tmkmidPH2Nb82bcuzvZ4cuNm2m5/olA8iBOheFTx2Koi6bWpTJ5eU2Rbrw/uWe45JvDuhmLbbQIRTvFAm+AY0EZ29frgwRVVbfPG+tq1DcWDEHdA8XBPHCce6ND/4rRT5csmH8jPf/5zafn+m3LOWb+RlVNG2m7/Yxj1QydJXzDFtubPwaSlSgR+8pOfSLuPG8hXzRoqWhjHlblwqu0+JwLFgzgRiocHdKjbZpTIp+ml0sb41wnyce/yQmmXWaqOCXxmHNfbtZCPcIkH2gJtgmNAGzlBPh5aafx/WdqmtXFcr60LvW0oHoS4A4qHe+I48cAVhvaN35fS7ERDQE6THasWSOdWn6hf7Hbb1wUHNiTISSedJIdTlpnrrr38PzJnaG+f7cIBxYM4EYrHEXnE6Eh/bnRib04oVMvXxxeq5SdW128Hu2N2qUIvP2wc55L9lT7bBCMc4oE2QFugTbCMNsIy2sx/27rkAUM8bl/mOSbwzJpimb2nwmebYFA8CHEHFA/3xLFzPKzi4V+bN7yv/NDuU0XC+CFqXcbCqeY6Td+v2vjsN/z7r8xa9uLpPjWQPGeiz/4junZU6yEeuOLxbcvGZu2Tt16WtHmTqz3HiULxIE6E4nFERm0vl3eTSnzWvbKuWCbvqpA/zs2XD5JL5MW1nk/Tf2bQIKlYrTtzZtX26AhjHbhiSYFad+miArV8/wpPJ/23s4+o5df9hgW9ZDy33veC+fnm+oeN5wTmcj2IB9oAbWFdh7ZCm/1lnqdtnjU6/Vh/6nTP6wOnG4/19pAUvf6/iz1tc7nRRli+Z7lHHs6f43ku/5+Fqxh63z8Z/xfWGrjceD7UWqSVyHvG/4t/PRAUD0LcAcXDPXGdeCwaNUCavfOavPTYgwq80ZZNHKa4/YZr5Ldnn2XWXnvqERn63ZfqubBvU+9+5//2XBnf6zuf502eO1E6NP3Q3PfeW26Uf//9YlXT4vHsQ/ea9W5tm8u2FfN9niMcUDyIE6F4BBePSxbmy8zdFZJdeFStP3naERm0pUxKjx6XC72SgHkY3+WWyrBt5QoM+0HH+s5lhbL0QKVMMZ4H26GjjufcU3bM/DkYxtRnU5m5b+OUEvN5rWAdai3TfY8zGJEWD0jEnD0VknTE0zanzzgiw43XUHHsuBIJrIN0dc2ren2tjOOHkN2/olBWHKyUMcbzYLu/LciXacbP2lJc1TbPJRZL/81V+35svP7/M9pQ18F9xvOg9k1OqdxhuQJSExQPQtwBxcM9cZ14PGb8Yhxk/ILUy19/2kjefu5J9Xj6wO7yv6suN2v718fLT3/6UzmSutxcB+7833XVxOObFo3lrWefMJfT5k2SD195Tj3mUCsS61A8gosHHl8VV2iKh2Z/+TFTEOL2V8qXWaXy6KoixaSdFfKVd4jUy2uLTfEAf11Q4CMe+4zH72woMfddbXTG9dUVzQVGZ7u20gEiLR54fFNCoSke4GeGmBVVVonH6kOVan6Ifn3TjedrneFpG8xX0eIB/mMIiRaPnxoUGs+Dq0N63w2HK+XJAMPfONQqMBQP4mYoHu4JxcOLv3hYoXiQWIfiUSUeF88vUPMG/mbIQW3FI9nofC/aV2mi77IUinjgk3/rvrhSouv4hL9pau2lA4RTPNAmaBu0UW3FY70hDNbXh6FlqIUiHssO+O57c4JnqJY/FI/AUDyIm6F4uCcUDy/+4nEkZbmkzJ2oHlM8SKxD8TiirlY0SimRDsa/iUYn+ducUvkguVg653o+mQ9FPHCXJV3DvJA/GOBxKOJxkdGZ18vo2J89y7MvnqNVeqk0T6u9dIBwiAfaAG2BNkHboI3QVmgz1EMRD6tIYZ6GroUiHrodAeTnN7Oqnuf33ucBFI/AUDyIm6F4uCeOFI/ynLWSOm+SnHrKKWryeEnWGrP23otPS4/2LdWtbEGHph8Zb7a3VQ3iceW/LzFridNHy98v/Ivkp61Q9bz4WWr9DVf+V00Qx2PICWr9OraVD15+ztx3ct/v5f7bblICtHrqKDXHY+2MMWb9gTtulvixg83jChcUD+JEKB4e2meWyKdGBx+d2/aZpTJ0a1WH+N9Gh3jxvgpV0xw0xANXAE6ZfkRGbiuXFxKLzBqGWTVO9Xyq/6ghJMOM59I1dMIhLRcbj1FfeRCf4nuusoDhxrZ6QjnuaIX5H7oGIDX6uGoiHOIBvsbrMWQDPx9zKXBMunbVkgKZa3T49fH9Y2GBFBvCcEN8oZoPM2FHuTy1uqptOhv760ngz6wpkgGbq17fAysKZUeJR8ROMuobjlTKdfFVr32sISl6MjrmirQx/p907fV1xeq59HHVBMWDEHdA8XBPHCkeuKXueeeebZK9eJpPHXMvdA3fraHXQzxO/vnPzdrfLvg/n/1uvPIys6bp06G1WcdEdL3+gdtvVuvwB8W6vWb11NHmfuGE4kGcCMWjCsw92F16TPIrjqtO7q8td63C1Q3U/PnXQo8IYIKzXveB392V8H0c1n3AluKjcrK3vupghbled6wBhldZ9wGYP6LrNREu8QC40oGfX2BIxdAtZfIrS9tgAr7/cYKLvVeExu+oen1v+d3RC3M3rPuArIKqKyiY16HX37zUd/J4s9Sq9ulbC+kAFA9C3AHFwz1x7FCr2lKWs1Ym9P5OdY6KMlbZbuMGKB7EiVA8qtNgQ7EUHz0uY3ZUXfVwI+EUD02jFE/bDNlau46+06B4EOIOKB7uSdSIx6gfvpaf/eynctJJP5Er/vVP223cAMWDOBGKR3UwvwDDhDBfwa7uFiIhHtHSNhQPQtwBxcM9iRrxKM5cLXvXLlFgMrjdNm6A4kGcCMUjeomEeEQLFA9C3AHFwz2JGvGIFigexIlQPKIXikdgKB6EuAOKh3tC8XAYFA/iRCge0QvFIzAUD0LcAcXDPaF4OAyKB3EiFI/oheIRGIoHIe6A4uGeUDwcBsWDOBGKR/RC8QgMxYMQd0DxcE8oHg6D4kGcCMUjeqF4BIbiQYg7oHi4JxQPh0HxIE6E4hG9UDwCQ/EgxB1QPNwTiofDoHgQJxKt4rE9K1k6r8qTOxfsilnaLN8kaemp1dpmS2ayfLNqo+0+sUL7FZsk0xAw/7bxh+JBSP1C8XBPKB4Og+JBnEi0ikdhbpLqdC9IzoxZNqSlyaGcpGptU2CsS43xtklKT5PDNm3jD8WDkPqF4uGeUDwcBsWDOJFoFQ9CwgHFg5D6heLhnlA8HAbFgzgRigchgaF4EFK/UDzcE4qHw6B4ECdC8SAkMBQPQuoXiod7QvFwGBQP4kSiVTxK8zbI7uxkdXerWGVnVrIU5VZvmxJjXcy3jfH6i23axh+KByH1C8XDPaF4OAyKB3Ei0Soe6FgPWZujbqkbq/RYnSu5GSnV2gZCMjAxttum95pc2ZhZvW38oXgQUr9QPNwTiofDoHgQJxKt4oFPtdHBtPsOh1iB3+MRGH6PByHugOLhnlA8HAbFgzgRikf0QvEIDMWDEHdA8XBPKB4Og+JBnAjFI3qheASG4kGIO6B4uCcUD4dB8SBOhOIRvVA8AkPxIMQdUDzcE4qHw6B4ECdC8YheKB6BoXgQ4g4oHu4JxcNhUDyIE6F4RC8Uj8BQPAhxBxQP94Ti4TAoHsSJUDyiF4pHYCgehLgDiod7QvFwGBQP4kQoHtELxSMwFA9C3AHFwz2heDgMigdxIhSPKl5fVyyz9lRIg6Ri23p9ctvSQmmbUWpbC0Q4xQNtgrZBG9nV65q3N3iOx0r7zNDbh+JBiDugeLgnFA+HQfEgToTi4eHN9cXyWUaJPJtYLC3TS+Q9B8nH3csLZcXBSpm2q8K2HohwiQfaAm2CtkEboa3stqtLuuaVybgd5eqYNLcYcma3rR0UD0LcAcXDPaF4OAyKB3EiFA+PdLQyOtb/XVyglv+1qEBapJVIg6SSatvWNfetKJIvs0pl4JayehEPtAHaAm2CZbQR2qq+5QPi0aYWVzj8oXgQ4g4oHu4JxcNhUDyIE6F4HJFR28vlXT/JeGVdsUw2Ovp/nZ8vnXPLpLnR+cb6n087Il/nlKp1Z8+q2v51oyOOdQDDorDuxoRCtfyqd3jSH+d6nqutX4e5hdGR1/vqDj64f0WhtDO2vXNZoby4trhexANtgLawrkNboc3+ubBAHXPjVE/b/GL6EfN1nDmjavt3NlS9vpuMNsG6W402wvKLiUVq+YJ5nrZple7bNq0zPG0N/ragqm0gHssOVJq1F9d6nidUKB6EuAOKh3tC8XAYFA/iRCgewcXjQkM8+m8ul+zCo2o9xAPiUHz0uKrpbSEI7bM8tM0okdsNWbg2rlCm7KyQKV5h+P2cfOmxsUz2lB0zf04To9P+ud++//HKR8fsUgUeO1E8IAJDtpRL0hFP25xmiMcXxmsoP3ZczjdeK9a9YQiZf9vcbMgHpGzG7goZYzwPtvuzIR59NpXJluKqtvnUkD3/tvnnQs/zQjyW7K80a/gZz3slJhQoHoS4A4qHe0LxcBgUD+JEKB7BxQOPrzIEQouHZn/5MVM84owOcP/NZfJxSoli4b5K+corDC8bwqDFA/zV6KxbxWOf8Riddb1vqtGJh2TcZogLOtMPrvRcIXCieOAxrmBo8QA/M8SsqLJKPFYfqpRehmzp14e2wlUM1DBBXIsHgHBp8fipQaHxPJA8vW9WwVF5crVHLh5bVST3LK+a0/HMmmKZvSf09qF4EOIOKB7uCcXDYVA8iBOheFSJx9WGYGDI1HXxhbUWj/l7K2TQlnKTJ7wd5FDEY/wO332vN34+hg61MTroOB7QzxCb+hQPtAmOA21UW/GYYwiB9fU9tNLTNqGIB+rWfa9a4rkahKtJl3nn5ACKR2AoHsTNUDzcE4qHw6B4ECdC8TiiPk3HHA5ceZiws0JdrcAQqGbeeR2hiIfuTAN0oP/tHS4VinhcNL+qA32D0cHHsCM8fiGxSB0PQAe+PsQDbYC2QJvgONBGaCu0GeqhiAfmqOg6ZAFzQ/A4FPH4w1zP8wD8LMyTwWP/yeUUj8BQPIiboXi4JxQPh0HxIE6E4uHho2TPna3uXl6k5mEM3VrVIcZchrFGBxk1zZGKY4ZUFMkvZxyRzjll8q7RidY13IXqNe/wJHS6exrPp2uYaH7IkBasP8moj99RLk+trnpeDEu6w9JRB38yOtudjI7/igOVhgRVSUpNhEM8QFNDPCAbOD4MKcNcDF2DYI3YVtU2964okpKjxw0RKJLTjbbpbrwe3AFL1zFn5YVET9tg8vwPeaVm7W1juz2lx9TkfLTNVEO0MKRK13HV56YEz+vH94pgGJaufZhcIh2MdtfHVRMUD0LcAcXDPaF4OAyKB3EiFI8qPkgqkZUHK2Vz8TGZubvC5y5K6Pyj5g/ueoV659xSc91LfndYwmRq6z4gfn+F/Nxbn7iz3Fyv7/pkBfMadL2XpdNfE+ESD/CJIR/4+VuNtplkHO/FC6quRKAN9PFZ+T/vlRvIh14HIdH7gbuWV28bDFvT9emGfOj118T5tg1ERdcge9ZaTVA8CHEHFA/3hOLhMCgexIlQPKqDT+TTC47KD0aH2a7uFsIpHhrcpQpt821O7Tr6ToPiQYg7oHi4JxQPh0HxIE6E4hG9REI8ogWKByHugOLhnlA8HAbFgzgRikf0QvEIDMWDEHdA8XBPKB4Og+JBnAjFI3qheASG4kGIO6B4uCcUD4dB8SBOhOIRvVA8AkPxIMQdUDzcE4qHw6B4ECdC8YheKB6BoXgQ4g4oHu4JxcNhUDyIE6F4RC8Uj8BQPAhxBxQP94Ti4TAoHsSJUDyiF4pHYCgehLgDiod7QvFwGBQP4kQoHtELxSMwFA9C3AHFwz2heDgMigdxIhSP6IXiERiKByHugOLhnlA8HAbFgziRaBWPHVnJ8sPqXHnI6HzHKl+u2Kgkw79ttmYmy/er82z3iRU6rdwo2TZt4w/Fg5D6heLhnlA8HAbFgziRaBWPotwNqmO5NCUjZklPT5XDOUnV2qbQaJusGG8bCNkRm7bxh+JBSP1C8XBPKB4Og+JBnEi0igch4YDiQUj9QvFwTygeDoPiQZwIxYOQwFA8CKlfKB7uCcXDYVA8iBOheBASGIoHIfULxcM9oXg4DIoHcSIUD0ICQ/EgpH6heLgnFA+HQfEgToTiQUhgKB6E1C8UD/eE4uEwKB7EiVA8CAkMxYOQ+oXi4Z5QPBwGxYM4EYoHIYGheBBSv1A83BOKh8OgeBAnQvEgJDAUD0LqF4qHe0LxcBgUD+JEKB6EBIbiQUj9QvFwTygeDoPiQZwIxYOQwFA8CKlfKB7uSZjEo0SObk23/Y8gtYPiQZwIxYOQwFA8CKlf6l08tqTJ8eICb6+YCZbwiMfx43K8ssKgnJwgjT5uKG1af2Zbs+PPf/qTpGxYb1sjJFzMnjlDrr/+OtualbvvvkvGjRltWwsHA/v3kycef9y2Zsd9994ro0eOsK0REi62bd4kZ/7yl3Ksosy2rmnc6ONa/X6vSwYPHCCPPvKIbY0Qp9Pkk8bSqmUL21rdYPSBjx/z9oqZYAmLeDDhS+PGjaVt27bepZrz5z//WVJTU71LDBOZzJkzR2644QbvUuDcc889Mn78eO9S+DNo0CB58sknvUs15/7775cxY8Z4lxgmMtm+fbuceeaZ6kO4YPnkk09q9fu9LjNkyBB57LHHvEsM4640bdpUPvvsM+8S4+RQPBwWigfjxFA8GCZwKB4MU7+heLgnFA+HheLBODEUD4YJHIoHw9RvKB7uCcXDYaF4ME4MxYNhAofiwTD1G4qHe0LxcFgoHowTQ/FgmMCheDBM/Ybi4Z5QPByW2orHzTffLG+88YZ8/PHHhESMF154QZ5++mnvuy5wnCYeODdw3HaviZBw8e6778pll11G8WCYegrFwz2heDgstRWPCRMmSMeOHaV9+/aERIxvv/1WZs+e7X3XBY7TxGPhwoXy3Xff2b4mQsJFhw4dZNSoURQPhqmnUDzcE4qHw1Jb8WAYJ8Vp4sEwTgrFg2EiE4qHe0LxcFgoHoybQ/FgmMCheDBMZELxcE8oHg4LxYNxcygeDBM4FA+GiUwoHu4JxcNhoXgwbg7Fg2ECh+LBMJEJxcM9oXg4LBQPxs2heDBM4FA8GCYyoXi4JxQPh4Xiwbg5FA+GCRyKB8NEJhQP94Ti4bBQPBg3h+JRd9m3b5/k5+d7l0Q9xrraZv/+/T7Pw0QuFA93xP+cKCgo4Lnl8FA83BOKh8NC8WDcHIpH3eXFF1+Unj17epdEPca6YDl8+LAcPXrUu+TJyy+/LD169PAuMZEMxcMdeeWVV6R79+7eJZE+ffrI888/712yj9259eqrr8oPP/zgXWIiGYqHe0LxcFgoHoyb4ybxwJe9VVZW+oCOQ01fAleb/Jjnszsu/+fA80IyevXq5V0j6jHW+Xd+rDnvvPMkJyfHu+QJxaPuEivi4fZzC+JhPSf69u2rxCPYuXX++edLVlaWd8kTikfdheLhnlA8HBaKB+PmuEk8pk6dKmeccYYP5557ruqMhCt//vOfZdOmTd6l0LJ+/fpqx+U/zOOpp55SHcWKigrvGlGPsQ61QKF41G9iRTymT59e7T189tlnS1lZmXeLE89f/vIXycvL8y6FlqSkpGrHtWfPHm/Vk2effVb9nvE/t4YNGyZPPPGEd031UDzqNxQP94Ti4bBQPBg3x03iMWnSJLnppptk1qxZcvHFF8uGDRvk9NNPD6t47N69u1bPt2zZMrn99ttl586dCkjLySefXE08Hn74YRkxYoR3qSpYh1qgUDzqN7EiHlOmTJEbb7xR5syZIxdccIEkJyfLaaedFlbxqO25tWLFCrn11lvNc2vLli1y6qmnquexBm0wdOhQ71JVRo0aJQ8++KB3qXooHvUbiod7QvFwWCgejJvjJvHAhNFt27bJ6tWr5R//+IfqxGRnZ4d1OEhtsmDBAvXaNm/e7F0jcuzYMdWZsXawXnrpJfXp65EjR7xrqoJ1qGEbu0A8LrzwQvV6Nb/61a/Uer3crl0779ZMuBMr4oFza+vWrbJ27Vr561//ap5beD/XRxYtWiSPP/64z7mF8xzHZD23MMQK7WB3bmGSOMQ+0FwPiEdN51abNm28WzPhDsXDPaF4OCwUD8bNcePkci0edkEn45prrlHg01sEn2DqdZr33ntP1ZADBw741Hbs2OGtVKVTp04+2+Ccx6fEt912m3cL+2AOx8iRI+X111/32d8KatjGbqI5OkETJ05UrzkQ1s4ZE97E2uRyLR52wftTv2dnz56t1uEGCdb3Mnj33XdVDTl48KBPDR8c+Oebb77x2aZ169Zq6Nctt9zi3cI+uPIHsXjzzTd99rfy2muvyejRo23lA+KB331255SG51bkQvFwTygeDgvFg3Fzokk8XnjhBTW8AlciwEcffaQ6MBiqhA7Io48+atYGDBggDRo0UPthOIlef+aZZ8rGjRvVep2vvvpKdY70Nh9++KHq9IQiHqtWrZJDhw6pserY95FHHpE33njDfK4WLVqooVbYBtv6x26oFVN3oXh4gitykGP9vsW5hTlXubm56v2M97Wu4ZzX8lFeXm6u//Wvf622t6Zjx47y9ddfm9vgeXEehyIe+D0AsdHnFs5vSLx+rpYtW6qhVji3Vq5c6d2rKnZDrZi6C8XDPaF4OCwUD8bNiSbxwNh0dEJ08CknbquJfPnll0oYdBYuXChXXXWVd6kq55xzTjXxQEeod+/e3iVRE2QTExNDEg//vP/++6qzpRPKHI+7775bDTvxZ8KECd6tmEiF4uHJRRddpG6ioGO9Qxvez3hf6yxZskSuuOIK71JVfvvb31YTDwiNdb4Szr01a9aEJB7+wfndoUMH71Joczzuuusu23Nr3Lhx3q2YSIXi4Z5QPBwWigfj5lA8fBOKeOjUVjxwi090jDBxVycU8cAnwuhkWrnjjjvUlRgmsqF4eFJX4qFTW/Ho37+/Oset538o4oEhlP7nFmTkiy++8G7FRCoUD/eE4uGwUDwYN4fi4ZtQxCM+Pl6GDx+urnyg44JhWDq4jWejRo2ksLDQu6Yq6KxZv0AQCSQemECL3y1dunRRX3Tmnw8++IDiUQeheHhSV+KRkJCg7lCFcxDCDXT0OWH3zeL+XyCIBBIPfLdHkyZN1LmFYVj+wXAvikfkQ/FwTygeDgvFg3Fz3CYe6LhgHDe+YwCdfmvQgcHEVPwxA59//rnqSCEQj6uvvtqs4W41AwcOVDXc0Uev/8UvfqE69Xisv88DVzZwjutt8Bjj2xFMPm3fvr1ZA+i0FBUVqboOBAPHgyFa1gQSD8w7wa1D/b+zQIfiUTeJJfGASGO+xllnneUzHBCxO7f0exnbQuJ1DdthDhUCAdfrcetrCAoea7nHeeR/buF8Q3D7XLtzy1/qMfcEx4MhWtYEEg8IDI5l165d3jW+oXjUTSge7gnFw2GheDBujtvEAxOtmzVrprDrHHz//fdm3foJLcQDn8LqWr9+/bwVj3jo9VasVz7wHSJ6ve4Y6Wzfvt2sYUKr9XafCO6qgz+w69atU8txcXHqKglAx2rw4MFqvU5xcbH6pBfPh2OzC8WjbhJL4gGp1+9jvC/907VrV7Ou38sIxOPyyy83a/oqIwJJ0OutWK984HzS6ydPnuxd6wnuMKdruBGD9UsCkTFjxqhzS0sQrkZazy38/rGmpKTEPLfsrpwgFI+6CcXDPaF4OCwUD8bNceNQq9oGd7TBVQXMx8D3A9R1vvvuO58hYOhc4a4/wL9jhEA28MmwfyfLGnS49C1Nmcgl1oZa1Ta4ExvuJoUv+sPwxboOPmiwfsAAidHnlr6iaQ1ECLfSDvbFiGPHjpWZM2d6l5hIheLhnlA8HBaKB+PmxIJ4YMgF5nsAu0niDBMoFI/ggQDrc0vP+WCYUELxcE8oHg4LxYNxc2JBPBjmx4biwTCRCcXDPaF4OCwUD8bNcZp4YEI3hkZhrDYhkWLp0qWSmpoqx48f977z7BNN4sFzi9QFoZ5bFA/3hOLhsFA8GDfHaeLRsGFDNVH1sssuIySi4HsiYkk8Pv74Y55bpE646aab1G2Lg4Xi4Z5QPBwWigfj5jhNPO6//341bpxhIhnciezMM8+MKfHArWVx61mGiWR27twpZ5xxBsUjikLxcFgoHoybQ/FgYjEUD4aJTCge0ReKh8NC8WDcHIoHE4uheDBMZELxiL5QPBwWigfj5lA8mFgMxYNhIhOKR/SF4uGwUDwYN4fiwcRiKB4ME5lQPKIvYRGPisoy2X0wT7btyyQnyNsNXpVGTT+wrRHidG657UbpM7CrbS0cdO72ldz/0D22NTtuu/Nm6dmvi22NkHCxOmmJnPHLM2Tr3gzbuubtBq/Jx03et63VN126d5J7H7jLtmbHnXffKt37dLatERIuElPi5Ren/0I2706zrWveff8N+ahxA9taXYA+cFl5kbdXzARLWMSjrKLEeFOkyKbdyeQEefPdl6Vhkwa2NUKczs233SA9+3e2rYWDb75vL/c9eJdtzY5b77hJfujzjW2NkHCxfN18JR4bdyXZ1jX4/f7RJ+/a1uqbzt2+lHvuv8O2Zscdd90iXXt1sq0REi5WblioxCN3x3rbuubt916VDxq9bVurC9AHLi7N9/aKmWAJm3jY/UeQ2kPxIG6G4kFiEYoHIZHBLeIBKB6hheLhMCgexM1QPEgsQvEgJDJQPKIvFA+HQfEgbsZt4pG2I0Wm52VIn/ScmGVSTqas3159qGyqsW5abmy3DZiI9tkWfCgxxaM6WZvXy6qlK2XBxPiYZfniFZKes65622xaLysTVtjuE0ssX7Rc0rOrt48Vikf0heLhMCgexM24TTxWbEmVJms3y38X7I1Z3l61ReZuTK/WNks3p0mjxNhuG/Dmqq0yO696+1iheFQnOS1RxnWdJ52eGR+zDPtilqxZuapa2yQlr5ExXeba7hNLDPvcaJ/lK6u1jxWKR/SF4uEwKB7EzbhNPOKMzvWzy7fLT6YeiVnuid8pU3Izq7XNwk3p8tSy2G4bcGfcLnXVw799rFA8qrNhwxoZ2GKGNLp8aMzSvcFkWbFkRbW2Wb92tfRvNt12n1jih3cmq6se/u1jheIRfaF4OAyKB3EzFA/3QfEIDsXDHopHzVA8gkPxiM1QPBwGxYO4GYqH+6B4BIfiYQ/Fo2YoHsGheMRmKB4Og+JB3AzFw31QPIJD8bCH4lEzFI/gUDxiMxQPh0HxIG6G4uE+KB7BoXjYQ/GoGYpHcCgesRmKh8OgeBA3Q/FwHxSP4FA87KF41AzFIzgUj9gMxcNhUDyIm6F4uA+KR3AoHvZQPGqG4hEcikdshuLhMCgexM3EgnicPStfLp5fIOfOzret1we/mXVEHRM4f07tjivc4nG291ic1D7gzJlH5He1bBtA8bAnEuLR6tbR8uVDk+Sz28bY1uuDljePUscE2tw5znabQIRbPFre4m2f253TPuDTG0cabTPWthYMikdshuLhMCgexM1Eu3j8csYR6ZRdKnvLjsn3eaWqM2u3XV1yhnFMLdM9xwTGbi+XX9fiuMIpHmifLzI9x9LDIe0DfjH9iDRKKZaxO8pt68GgeNgTbvFobnRe5w9MlsKDpRI/Kl11Zu22q0uaXz9SpndLVMcENszfJC1uGmW7rR3hFI/mN4yUOX03qONYOi5TPv1f6McRSZpdN0Imf7PKaJvNtvVgUDxiMxQPh0HxIG4mmsXj59OOSK+NpdI4tVgtv5dULIO3lKn1/tvWJR0NEQJ6+eFVRbJkf6XPNsEIl3igHboZsvFpWolafmtDsQzfVv/tAxoa0lFx7DjFIwj1KR6fXDVMEsZmyLTv16jlcV8ul9XTc9V6/23rkvkDjPNgSKq53P+jhZK3bo/PNsEIl3igHZaMSJOZ3deq5dFtl8ra2Rvlk6vrt33ApK9XytHKYxQPA4pHaKF4OAyKB3Ez0SweQ7eWSYOkEvmZd/mnBq+uK5ZxP6IzG06cIh4DNpfJR8lG+3hFA+3zYmKxTNlZv+0D8H/WwBBFikdg6lM8Vk3NkQlfrZTGV3o60vh35GcJkrSg9p3ZcOIU8Vg+MUsmf7vap32GfRonqUu2Vdu2rsGxjPtiOcXDgOIRWigeDoPiQdxMNIvHqO3l8q4hHtZ1rxjiMXlXhdyUUKCGF6086Onwn2Z0vneUHFXr/m9e1fYjtpWbQ6I+TPZcOXljfbFaHrrV0ym+dFG+Wk4r8JWH1YcqzX3vWVForneKeOD4PzTEw7rueUM8Zu6ukOviPO2TeNhzXJCSzUWe9rl4QdW8i8FbqtqncYrnuV5aW6SWRxvtj+V/GttjOafgqLkfWHagqn0esrSPBldgKB6BqU/xSJyZp8TDum5EqwSjY71Vur0ySw0v2pK6T63Hp/yHdhepdV88MMHcfvWMXHNI1ORvVqt1o9osVct4fix3enKKWt6z+bC5H9icvM/ct+8H8831ThEPiBnEw7puaPM4yVi2Q7q8OEMd9/aMA2Zt//YCte6rRyaZ61ZOzjZf47TvE9W64S3j1fL6uZvU8lePTlLL+7flm/sBvGa978CPF/rUwJh2yygeBhSP0ELxcBgUD+JmYlU8MIfgUaPDn13o6QyfZHDR/Hw5WH5MLjT+Vfsb0vFCYpE5CfwrQxY+SS2RX808Ik2Mf6cYz4PtTjGe645lhbLH6EDrnwPp+F98obnvCKOT/4jx81Bzg3icZrymBwwZ2FRc9ZrQLpCEfywsUMvDjPZ52ZAM/RrbZ5ZK87QSNU+koSEhs/Z428eQupsN0TtUftx8LkjHrUur2mewcSxPrva0j4biERynikfT60ZIf6Oza+0Mf/ngRCk8XCodHvZ0rLH/iFbx5iTwef2TVOca8yAmd14taXGeKwNNrhkuPd6co/bVz7UlZZ90f2O2ue+a6XkysPFiVXODeDS9drj0fX++HNpVaNa+MNonf3+xdHp8ilpeNS1HSZh+jXP6bFDDttA+E79eKZnLd6jtmlw9XLq9OktKC8vN58Lr7fn2HHPflVNyZGizJWYdUDw8UDxCC8XDYVA8iJuJVfHA46viCk3x0Oy3iEecIQN5RUdl3WEPe0qPKflA7eW1xaZ4gL8uKPARj33G47T8qn0PVxyXF419UHODeODxfxcX+IgH2GW0gRaPBfsqZaOlfVD7NqdM1Z41nkeLB/i/efk+4rGj5JikF1Tti9rr6z3to6F4BMep4oHHnZ+bXu1T+IKDJaZ45KzZpT7l3555QJG/v0QWDk5RNXyqr8UDoFNuFY+CAyWyO++wuW9JQbmMbL1U1dwgHnj89ZNTfcQDHN5TZIpH5oodcmCHpX32FcuS4WmqNsSQCC0eoN09433EA1eX9mysap/i/DIZ2365WQcUDw8Uj9BC8XAYFA/iZmJBPN7dUKI69pjPUFvxaJFWoj6Z11zgrYUiHs8ZnW/rvud5b1frNPHA0DH8fAyVqq14tM7wbR9cNUItFPFAG1r39b+tMMUjOE4QD3RocxN3q052bcVjZvd16mqGBoKBWijigW2s+7a+w3NrWKeJx+i2y1T7TO2yptbiMbv3ep/X+OVDnvYJRTxGtU7w2bfNXb63FaZ4eKB4hBaKh8OgeBA3E83iceWSAvna6OB/ll4iD68sUndv6pxTKlcbwoF6KOLxkLGfrkFaMH8Bj0MRj4vmezroAMeAzjUeO0U8LjfEAsfRJqNUtU8zo3265JbKtd72CUU8HrcMj8KwtNeMNsLjUMTjn97nAfi/uXOZ7zwPikdw6lM8IBYLBqfIrJ7rZEDDheoWtouHp8n3L3r2D0U8Bn68yKyN+CxBRhqdZTwORTw6WOZCQGB6vjVXPXaKeHz7zDR1q2HIA9oHw8jiRhjt89JMVQ9FPIY0rRoehYnpkAU8DkU8vn7C8zxgWtdE6dNgnrkMKB4eKB6hheLhMCgexM1Es3iAa+M8cw8wSXzNoUpzQjjAFwu+bXRuUdOUHj1uCEW5/N/cfLlreaHqiOsaPt2/zOiMY1/ICa4Q6NpUQ0JKjH1xu17ckQnzFfptLjPrjYxt9dUSdPjR2dc1/Az8LH1cNREu8QBXG+3zubd9Vhntg6tEuoYvOXxrvW/74DVOM14rrmxgXst3hsjpWlvjNV1hyB72/YshGh9b2mfyznIpM/Ydtq1MTp12RAlLn01V7YO5M/pqCbh/RaGa+L+5+Kg0NWp6fShQPOwJp3gATJKe23eDuvqBieT4V9fwxXm4GoJ1moqySklZslXa3z9Ber07T4mKrs3utV46PztN7dv+gQlqnoeupSzeKhXlR2X1tFw1UX1wk8WyfEKWWZ/y3Wrzagk6/JAhXcPwpN4NfDvdwQiXeIDvnp+u5mbgODAZXk8IB/hukTGfLzOPE5SXVCrhwpWNnm/PlUVDU80anuc7Q+aw7+f3TZBJ31S1T/LCLXK04qh6jO/oGNR4sSwbX9U+uNqihQ9gfsnm5L1y0BCf6d08t/sNFYpHbIbi4TAoHsTNRLt4gOvjC+W9pBL16XlmwVF5x5ANXcMX96HmzzlGpxv1+1cUmesgDHo/cIHRubbuA/DcuAMU6i+srdoXHXHrvuig6xp+hrVWE+EUDwA5w3FAOnAFCN93omtnzrBvn996h43du7zqNV7llQ4NrnJY9wG4Ra7+npDnEqv2tUoHgODp2oOWq06hQPGwJ9ziAbq+PFMNuVpndKr3bj4i479cYdYwERo1f/S3nONuVHqd7lRrICfWfcA447n17WmHt4g311vvlAUgMLrW74MFPrWaCKd4AMgZjiNxVp7s25ovEzpWzYvBFwzq47Sih431ea+qfbq84Pv/8vm943320WCyOepDP40z1+khWppvn55q1vo3rH7Hq2BQPGIzFA+HQfEgbiYWxEODoVefppf6DA9yI+EWDw3ECu3zlMvbh+JhTyTEQ4OhVfj0fPAnnrtLuZVwi4fm26enqfbBMCm7ulugeMRmKB4Og+JB3EwsiUe0ECnxiBYoHvZEUjyihUiJR7RA8YjNUDwcBsWDuBmKh/ugeASH4mEPxaNmKB7BoXjEZigeDoPiQdwMxcN9UDyCQ/Gwh+JRMxSP4FA8YjMUD4dB8SBuhuLhPigewaF42EPxqBmKR3AoHrEZiofDoHgQN0PxcB8Uj+BQPOyheNQMxSM4FI/YDMXDYVA8iJuheLgPikdwKB72UDxqhuIRHIpHbIbi4TAoHsTNUDzcB8UjOBQPeygeNUPxCA7FIzZD8XAYFA/iZtwmHvGbU+XlFdvk9OmHYpaHEnbItNyMam2zaFOavLA8ttsG3G+I2eSc6u1jheJRnQ1Ja2Rw65nS9PrhMUuvj6bIijgb8Vi3Wga2mmG7TyzR8wOjfRZTPGItFA+HQfEgbsZt4rFhe4oMzMiWTxI3xyw9UnNkxdbUam2zbluK9E+P7bYB3Y32Wb6levtYoXhUJyN3nSyamiBjv58bs8wdFyfJqYnV2iY9e50snBpvu08sMXfsEklOqd4+Vige0ReKh8OgeBA34zbx2LgrWfIMcmMYvH60A9vGnkDtY4XiUR20xcadSZIXw+D1270n2DYeArWPFYpH9IXi4TAoHsTNuE08CAkHFA9CIgPFI/pC8XAYFA/iZtwmHknbU2R4Vpa0Wb8pZhmQni2rbYZabdiWIsMyY7ttMAxvjU3b+EPxqE5m3jqJm71UJvdeELMsnJIgKenVhxJl5KyTJbNivG2mJUhqxtpqbeMPxSP6QvFwGBQP4mbcJh4Jm1PlzVVb5dyZB2OWJ5dtlxl51SdPL9mUJq+tjO22wR3PZuelV2sbfyge1UlKXiPDvpglrW4bGbP0bTJNViVUn1y+Yf1qGdpupu0+sUL/5tNl9fKV1drGH4pH9IXi4TAoHsTNuE08eDtd3k43GA8k7JTpNlLmD8WjOrydLm+nGwzc0WpVAsUjFkPxcBgUD+JmKB7ug+IRGIpHYCgeNUPxCAzFI3ZD8XAYFA/iZige7oPiERiKR2AoHjVD8QgMxSN24zjxWJseJy+8/FQ1EtbMtt3+x9CmfTOZMX+sbS0QeTs3yGtvveBzTPPiJttueyJQPIiboXi4D4pHYCgegaF41AzFIzAUj9iN48QjfvVsOe2006RZq4by85//XL2Rzjr7NzJ1zijb7X8M3ft+KwuXTbOt2ZGxabW8/f6r0vyzj+XT1o0Uv//D+TJsTB/b7U8EigdxMxQP90HxCAzFIzAUj5qheASG4hG7cZx4bMhcKk1afCg529cpAVmVvEhat28mK9bPt90+0iRlL5PGzd+XD403dOaWqtvidfimtSxePsNn23BA8SBuhuLhPigegaF4BIbiUTMUj8BQPGI3jp3jYRUP/9rwsX2l7ZefKsZPHarW4QqGXqfp8G0bn/269PjKrC1ZUV0a5iyZ6LN/114dZWniXDnzV7+stm2koHgQN0PxcB8Uj8BQPAJD8agZikdgKB6xG9eJx6gJA+TdD16XJ595RIErERNnDJdJM0fIjTddJ+ece7ZZe+b5x6XzD19KzrZ1at8GH76h1p933rnSe2AXn+edu2SSNG35kbkvOix//+dfKR6E1IJYEI+rlhTIq+uK5dq4Att6ffCfRZ5jAncsK7TdJhDhFA+0CY4BbWRXrw8uX1zVNrcsrV3bUDwCEwnx+O656TKqzVLp+tJM23p98PWTU9UxgV7vzLXdJhDhFI8uL85Qx9DlBefI3LfPTDPbpsebc2y3CQTFI3bjOvHAL8Zvu31hLrdo01ief+kp9XjQiJ5y9bVXmLUNmQny05/+VNLyfN/c/7v5umri0bLtJ/Lci0+aywsSpsprb71I8SCkFkS7eKAT+0VWqUzaWSFfZZc6ooP9L0M6Wmd4jgn8kFcmNyWE3sEOl3igLdAmOAa0EdrKbru65FLjGNplVrVNl9xSuTE+9LaheAQm3OKBTuzcfkmSvHCLLBiU7IgOdqcnpsisnuvUMYH40enS/Y3ZttvaES7xgJDNH5CsjmFe/yTp/Gz9Xy355qmpMqf3BrNtloxIk26vht42FI/YDcXDi794aCgehIRONIvHv40O/rc5pfLMmiK1/OiqIvne6Miic+u/bV3S0ejsA738sHFcS/ZX+mwTjHCIB9oAbYE2wTLaCG2FNvPfti55L6lYXlpbbC4/s6ZYZu+p8NkmGBSPwIRTPL42OvgLh6TIsE/j1PKAjxdK3Mh0+fbpadW2rUvQ2V84JNVc7v/RQslbt8dnm2CEQzzQwV8yPE0GfbJYLQ9pulgWD0tVV2L8t61Lxn+5Qka2TjCXhzRdIpkrdvpsEwyKR+yG4uHFXzxSc1eoOR+rkhbJNddfKVPmjPJ548+LnyzJ2cvM5XBB8SBuJprFY9T2cnk3qcRn3SvrimXyrgo5c+YRuSauUC71drRPMrgqrkCtO2V61fZ/W+BZB86fk6/WnTc7Xy3/1ahh+fQZnue63O9qCjr3et/fzKpa/77RuQZ6uT7EA22AtrCuQ1uhzX7tbRstIT+b5lkGJxuP9fb/WFj1+s7ztg3aCMsXzfcs/9LbNv/1k73LLG3zK+PnWWvgd97neXdDsXTLq5K0mqB4BCac4pE4M08mfLXSZ92IVgmSumSrfHrjSDXM6JunvR3tK4bKd8/PUOuaXjvc3L7Dw5PUOtD2rnFqXevbx6rlDo9MUsvNrh+hlv2vGKBzr/dtefNoc/34DitkYqdV5nJ9iEfSgi0yuu0yn3Vj2y+X9XM3SYubRqlj1hLS+Mph5utocnVV23z16GRzfZs7xqp1be70tM2XD3napvkNnnbGlSe9H8Cy3rfF/0b51ACeD7VxXyyX+NEZ1eqBoHjEbhwpHniDzY2bJKeccoqMmzpEsrauNWsvv/6stO/UShYsnapo1rKhfNTY84sc4vGfSy8xa9PmjpaL/3ahpG9cperxq2ep9Vdc9V9p2+FT9Rh30ULt6+8/l1feeN7ct++grnLH3beoWkrOcrnorxfIjAXjzPqdd98q441jQz2cUDyIm4lV8bjOkIzNxccku/CoWn+q0aFOya+UyuPH5UJvp/nP8/Jl+LZyySw4qmiRViLnGtLxQmKx7Co9JlOM58F2/1qYLxuLjsmesmPmz7l4Qb4hExXmvi+tLVKyo+sarENt2NbyarVARFo8MK9iq9E2SUc8bQMxyDLa6ZjRNlq+/s9om7E7qtqmSWqJnDMrX95YXyy7jbYZYzwPtrvCkLFNRttsMZ5P/xzI3LIDlea+uNoCQdF18JpxbKgN2FImf5zr+ZmhQPEITF2JBzq1B3cWyv5t+Wr9J1cPkx3ZB+XY0WNKNrDu83vHy+rpubJ38xHFzB7r5LPbxsiwT+PlyL5iSYvbprbr+Phk2b+9QAoPl5o/Bx3vnNW7zH3xKf6nNh1srBveMl4dq38tEJEWjx9eny0HdxXKrtxDan1zQ9LwGo4dOy7t7hmv1rW/b4Ksm7PRfH3Tvl8jrW4do+Zl5O8vkQ3zNqvtIBgHdhTI4T1F5s9B+25cv8fcF1ekIIK6Dka1SVC1lVNypJ3x/2CtBYPiEbtxpHisz0yQ3553rsmSlTN96vgiP11r1Ox9cz3E4+STf27WLvrrhT77XX3dFWZN07FzW7PepedX5vo77vFIhwZfIPiXC/5s1qfNG+NTDxcUD+JmYlU88PiquEJTPDT7y4+Z4hG3v1JeXlssvzc626DHxjI1JwI1rNfiAXD1wyoe+4zH1xnPr/edu6dCXrQMIQK4UoKO+pAtoUsHiLR44DHmnGjxALjqUVRZJR6rD1XK06uLzNfXf3OZmreC2tsbik3xAJhIr8XjpwaFxvNgPoneN84QtCeN59LbW+FQq8A4VTzwuPNz003x0BQcLDHFI2fNLtWRxpUOEDcqXRYOTlE1yIIWD/DFgxN9xKPgQIl0e3WWuW/G0u2GfCw16wBXSka3XSprDLmxrq+JSIsHHuPYtXhoSosqTPHYnLxPhjWPM1/f8onZMqfPBlUb8/lyUzwA5rRYxaOksFy+e366uS/aeWizJWbdCodaUTxCjWOHWtUWDM3qPaCLupqBL/yz28YNUDyIm4kF8cDwoDOMTv4pxr+1FY/So8dVR1nTLtMjMqGIR7Hfvs9655oAHNMHxrENMDrsel2ohFM80CZoGxxPbcWjxO/1NU/ztE0o4lFs2Q88utJ+AjnFIzBOEA8MD2p+/Uhpcs3wWotHRdlRKSupMJnbz9O5DkU8yksrffYd1iLerOMKy4SvVsiqqTnmulAJp3igTVTbGG1UW/Hwb5sZ3deqWiji4d82gz5ZZNatUDwoHqEmasTjh95fy0knnSQ/+clP5JJ//8N2GzdA8SBuJhbEo1N2qRpChbkCtRWPR1YWyc+MxxrMBUEtFPH46/wC230BOuk9Npb6rAuVcIoH2gRtgzaqrXjcvazQ9vWFIh5/mpvvs6/e1h+KR2CcIB6YzI0hVAmjM2otHoMaLVJzHDSYC4JaKOLx1WOTfPf11sC0Lmtk6bhMaex9vtoQTvHABHO0zaIhqbUWj77vzfd9fd7XEop4tL9/gu++3po/FA+KR6iJGvHAPBDM1wDJOcttt3EDFA/iZqJZPPBJPjr36OSfNStfGiZ7rjBgPeqhiMdDhnjoWtvMUmmdEfoVj4sM8dDLo7aVy1PeKx5tjOf4KqtUfuE9jtoSDvFAG6At0CZoGy1Cum1CEY87Ld8/grt0YZ4HHociHn+wzNuYtLNcHvZe8cBQtqbeKyeA4hGY+hQPfJKPW9XO+GGtmtw98etV6goDJjyjHop4DPy46pN43AJ3du/16nEo4qEnn4PEGXkytLnn7lqzeqyTBYNSBEOtdL02hEM80AbLJ2bJlM6rVdtM/d4QofGZZtuEIh59Gsw3a/MMuZveLVE9DkU8MH9GL29YsFkGNlqoHuO2vtN/8DwPoHhQPEJN1IhHtEDxIG4mmsUDnD3L0ynGRPKDhlQMtUzixjAjfEcEapqjx4/L9pJjcsnCfHVnJVwB0DVMLtd3p0IH/YXEIrO2w9gH+2YVHJWTjTo+0V9+oMKsP29sqzv1OJ4jFcfNGrB21GsiHOIBMBkc35OBn3/IaJs+m6qGfZ06/YjcboiFPj6IAyaXbzNeJ+5YBQGZuLPq9X1iSAfuhoV9MVEck8N1baexT+Wx46bIYNJ+oiEuuv7E6iI13wW1s4z2/dwQPF0btKVM3UVMH1dNUDwCE07xAK1uGa2ueGAiedGRMp9J3Bhe1PWVWaqmwaf/h/cWyddPTpHWd4yVxFl5Zg2Ty/XdqSA1w1rEmTXsg8nX+7YekSbXDlcddEyg1vXhreLNTj2OB51vXQPrLR31mgiHeABMBl80NFX9/OL8MlkxKdusYQgWvrzPeozHjdcHgejw0CRpc+c42TB/k1mb2mWNuhsW9sXrHNkmwawd2Vus2lWLDKRjS+o+sw650BKG9sX3eOja6mm56v9BH1dNUDxiNxQPh0HxIG4m2sUDoJOM2+aiw48Odte8qg425AM1f07z3lL3L0YnWa/DHa30fgB3pLLuA3ALWj3k6O8Lq9Zb72gFobHuA/RVllAIl3gATO7Gz4eAHDDaBkOudA1t4H+cQN9uGMes153j1zaQEOs+4F9Ge+j6Py1t439HK4iGrkFSrLWaoHgEJtziAXCLV9zadt6AJNXBjh+VbtYgH6j50/Q6T0cYQ4L0uta3jzH3A7gTk3UfoG5B6x1yhNvN6vXWO1rhVrHWfcCXD0406zURLvEAmNyNn79oWKoSMwy50jXcVtj/OEFTQ0pQ/+KBieY63O1L7wcgIdZ9AK586HrHxyxt43dHK4iGrn1+3wSfWk1QPGI3FA+HQfEgbiYWxEODTvb/EgpVp9eu7hbCKR4a3LIWbfP3Be5uG4pHYCIhHhp8Sv/Da7Ol4+NVHWA3Ek7x0LS929M2kCW7ulugeMRuKB4Og+JB3EwsiUe0EAnxiBYoHoGJpHhEC5EQj2iB4hG7oXg4DIoHcTMUD/dB8QgMxSMwFI+aoXgEhuIRu6F4OAyKB3EzFA/3QfEIDMUjMBSPmqF4BIbiEbuheDgMigdxMxQP90HxCAzFIzAUj5qheASG4hG7oXg4DIoHcTMUD/dB8QgMxSMwFI+aoXgEhuIRu6F4OAyKB3EzFA/3QfEIDMUjMBSPmqF4BIbiEbuheDgMigdxMxQP90HxCAzFIzAUj5qheASG4hG7oXg4DIoHcTNuE49lW1LlwzVb5K9z98Usr6zYKrNtOtfxhpS9vzq22+b1lVtl3sb0am3jD8WjOskpa2T0N3Ok/cNjYpbBrWfI6uXVO9dJSWtkZKfZtvvECkPazZTElauqtY0/FI/oC8XDYVA8iJtxm3ik7kiRiTmZ0iUlN2YZlZUla7elVmub5O0pMiE7tttmTHaWrLNpG38oHtXJ2rReli9eIbNGLI5Z4ucuk7SstdXaJjNvvSxbtNx2n1ghYd4ySc9eV61t/KF4RF8oHg6D4kHcjNvEg5BwQPEgJDJQPKIvFA+HQfEgbobiQWIRiocveTuSJGvjeknPWhuz4PWjHdg29uCqT9724OcLoHhEXygeDoPiQdwMxYPEIhQPX9Iy1sqc0UtkWPtZMQuGEyWnJlZrm9T0RJk9MrbbBswcvliSUqq3jz8Uj+gLxcNhUDyIm6F4kFiE4uHL2jWrpW+TabZ3M4oVen00VVYvqz6xHBOq+zSK7bYBvKtV7Ibi4TAoHsTNUDxILELx8IXiQfGoCYpH7Ibi4TAoHsTNUDxILELx8IXiQfGoCYpH7Ibi4TAoHsTNUDxILELx8IXiQfGoCYpH7Ibi4TAoHsTNUDxILELx8IXiQfGoCYpH7Ibi4TAoHsTNUDxILELx8IXiQfGoCYpH7Ibi4TAoHsTNUDxILELx8IXiQfGoCYpH7Ibi4TAoHsTNUDxILELx8IXiQfGoCYpH7Ibi4TAoHsTNUDxILELx8OXHiMfwlvGycnK2DGq82LZen/R4c46Mbb/cthaIcIvH0OZxqn2GNF1iW69rhjZboo7HyuTOa2y3tYPiEbuheDgMigdxMxQPEotQPHyprXhAOmb1Wi9Tvlsjs3uvl8GfOEc+er41R7JX7ZS1szfa1gMRTvEY+mmczNbtY/w7xOj0221XlywZniaZy3eoY9IMqsX/G8UjdkPxcBgUD+JmKB4kFqF4+FIb8RjWIl7m9NkgXV6YoZZ/eH22Wq5NJzZS9Hp7rjqWtPht9SYeQ5vFqWPo+vJMtdztlVlqub6vfEA85vTdYFsLBYpH7Ibi4TAoHsTNUDxILELx8KU24pEat01GtErwWTeh40pJnJknXz40UX2SPqJlvFrf9LoR5qfrzYzHent0wvX6b5/x/FyIDJb7frBALbe7Z7xaHtNumbkfGPflCnPfz+8db67v+ZZHOvp/tFDGd1hRb+KRtGCLjG7re8wY9rV+7iZpf/8EddwjW3var8k1w83X0vyGkeb2kDi9/rvnpqt1+BfL/T9cqJbb3DVOLfsPKcOy3hc/T6/3v+KBdrLuVxMUj9gNxcNhUDyIm6F4kFiE4uFLuMQDEpGWsE22ZxxQ65vfOFJWTc2RY0ePSevbx6p1AxstksVGJ1jPM5jZY53ar+/782Xjhr2ydpZHGDo8MlmSF22RA9sL1HLjK4bKqDZLZdm4THPfKZ1Xm53rhNEZ6rnw2Kni8fWTU1T77co9pNZDzPA6KiuOKdHCugENF8riYanma5zVc510NqSjd4N5krduj2yYt1lt94UheUkLNsvhPUXmz4HQLB1b1T5TDcH44oGJqgbx2Gb8v+jawsEpqs31vjVB8YjdUDwcBsWDuBmKB4lFKB6+hEs88BgTu7V4AHyqX1F21BQPdH7V0KNmSxQZy3bIzO5eYfhqpSke4Ntnp5ni0eRq43lKK2WM0YnX+6IDP7DxIvn+xRkyf0CyDDIeq+dxqHjgcbdXZ5nioSktqjDFY3PyPpnXP9l8jWnx21V7oTbm8+WmeIBOT0zxEY+SwnL12vW+27MOqknlqI38LEGt09viqlPmip3mck1QPGI3FA+HQfEgbobiQWIRiocvP0Y8Oj0+Rfq8N186PDKp1uKxNXW/GvajwR2gUAtFPHLW7PLZt+srM2VqlzUyvVuiOh4QPzq93sWj42OT1bF89ejkWovH1jTf9hnRyjN0LRTxyE3c7bNv99dnq1pH4zi+fHiSuS3Fg+IRaigeDoPiQdwMxYPEIhQPX2ojHguHpMqETitl0dBU2ZS0V+b1S1Idf9zdCvVQxAPzMXQdQ4Ha3e3pdIciHq3v8DwPQMe75S2j1WMMu8LxgP3GPvUlHrjyMumbVbJgcIo6lvkDk2Xyt6tlrtFOqIciHn0aVA2BwlCydt65LKGIh3XeS0dDDlvd6mkf/8nlFA+KR6iheDgMigdxMxQPEotQPHypjXiABYOSVUf/6yenypKRaWpega5hknha3DZVA5CHivKj6pN3yMN6o+OMIT+6vnhYmjlBGlc+lo3PMmuDmiyWw7uL1NWDT64aJtvS90vXV2aZdVxF6Pl2lcSAz24bI3ONDjbmmnx+X9Xk6poIl3iAef2TZNr3ieoYFw1NkRWTss0a2iNj6XbzNYCy4gr1OiBpEK9hn8abNczFgJBhX0w6x3Pp2oCPF0r+/mIlGKhvTt4r3d+YbdYTZ+VJn/fmqRqOB0O2dA2T9pdPrDqumqB4xG4oHg6D4kHcDMWDxCIUD19qKx5g3oAkOWRIQUlBuayelmt+sg46PTlF1fzRE8HXGcKg141q4ztfBJPPrfuAHdkHzTqupuj1kBDrvgBzHHQdE9v964EIp3gAXAHCMRTnl6mrL61uHWPWMPxKH6OVDt6hUBi2pteN+dx3vki/jxb47AN251VdQdmcss9c3+ONOT774sqLri0bXyWLoUDxiN1QPBwGxYO4GYoHiUUoHr78GPHQTPlutZKP5ROzbOtuIdzioZnYaaVqn1VTQpcgJ0LxiN1QPBwGxYO4GYoHiUUoHr6ciHhEC5ESj2iB4hG7oXg4DIoHcTMUDxKLUDx8oXhQPGqC4hG7oXg4DIoHcTMUDxKLUDx8oXhQPGqC4hG7oXg4DIoHcTMUDxKLUDx8oXhQPGqC4hG7oXg4DIoHcTMUDxKLUDx8oXhQPGqC4hG7oXg4DIoHcTMUDxKLUDx8oXhQPGqC4hG7oXg4DIoHcTMUDxKLUDx8oXhQPGqC4hG7oXg4DIoHcTMUDxKLUDx8oXhQPGqC4hG7oXg4DIoHcTMUDxKLUDx8SU5OlAk95sv3b06KWcZ1nSfr162u1jZJSWtk/A+x3TZgbJe5sm5t9fbxh+IRfaF4OAyKB3EzFA8Si1A8fMnevEFd9UiYtyxmSVy1SrI2Ve8sZ29eL2tXx3bbANU+G4PLBKB4RF8oHg6D4kHcDMWDxCIUD0IiA8Uj+kLxcBgUD+JmKB4kFqF4EBIZKB7RF4qHw6B4EDdD8SCxCMWDkMhA8Yi+UDwcBsWDuBmKB4lFKB6ERAaKR/SF4uEwKB7EzVA8SCxC8SAkMlA8oi8UD4dB8SBuhuJBYhGKByGRgeIRfaF4OAyKB3EzFA8Si1A8CIkMFI/oC8XDYVA8iJuheJBYhOJBSGSgeERfKB4Og+JB3AzFg8QiFA9CIgPFI/pC8XAYFA/iZigeJBaheBASGSge0ReKh8OgeBA3Q/EgsQjFg5DIQPGIvlA8HAbFg7gZigeJRSgehEQGikf0heLhMCgexM1QPEgsQvEgJDJQPKIvYRGPckM8tu1Nt/2PILWD4kHcDMWDxCIUD0Iig1vEY6vRBy4pLfD2iplgCYt4HDt2VErKCqSo9Ag5QT786H1p0aq5bY0Qp3PnXbfL8JFDbWvhoHffnvLoY4/Y1uy4+567ZMiwQbY1QsJFdm66/PKXv5TCksO2dc1HDT9w7O/3vv17y0MPP2hbs+O+++6RQUP629YICRe5GzPl9NNPl/yig7Z1zceNPpJmnzaxrdUF6AMfPVrp7RUzwRIW8WDCl8aNG0vbtm29Swzjrtxzzz0yfvx471L4M2jQIHnyySe9SzXn/vvvlzFjxniXGCYy2b59u5x55ply/Phx7xr7fPLJJ479/T5kyBB57LHHvEs158EHH5SRI0d6lxgmMtm5c6ecccYZRqf+qHeNfZo2bSqfffaZd4lxcigeDgvFg3FzKB5MLIbiwTCRCcUj+kLxcFgoHoybQ/FgYjEUD4aJTCge0ReKh8NC8WDcHIoHE4uheDBMZELxiL5QPBwWigfj5lA8mFgMxYNhIhOKR/SF4uGwUDwYN8dp4vH888+rP0ijRo0iJGL06tVLLrroopgSjxdeeEG9Hrv2ICRc9O7dWy644AKKRxSF4uGwUDwYN8dp4oHOFDpI+HSWkEiBDnu7du1iSjx4bpG64NFHH1XnDMUjekLxcFgoHoyb4zTxYBgnJZrEg2GcFIqHe0LxcFgoHoybQ/FgmMCheDBMZELxcE8oHg4LxYNxcygeDBM4FA+GiUwoHu4JxcNhoXgwbg7Fg2ECh+LBMJEJxcM9oXg4LBQPxs2heDBM4FA8GCYyoXi4JxQPh4Xiwbg5FA+GCRyKB8NEJhQP94Ti4bBQPBg3h+LBMIFD8WCYyITi4Z5QPBwWigfj5lA8GCZwKB4ME5lQPNwTiofDQvFg3ByKB8MEDsWDYSITiod7QvFwWCgejJtD8WCYwKF4MExkQvFwTygeDgvFg3FzKB4MEzgUD4aJTCge7gnFw2Hp1KmT3HHHHfLyyy8T4jquvfZamTNnjvfdHP5MnDhRbrjhBtufTYjTufXWW6V79+7ed7OzMnnyZLn++uttj5sQp3PbbbdJ165dve9mxsmheDgsKSkpMmzYMOnRowchrmP06NGyY8cO77s5/NmyZYuMGjXK9mcT4nSGDx8uGRkZ3nezs8Jzi7gZ9JvS09O972bGyaF4MAzDMAzDMAwT8VA8GIZhGIZhGIaJeCgeDMMwDMMwDMNEPBQPhmEYhmEYhmEiHooHwzAMwzAMwzARD8WDYRiGYRiGYZiIh+LBMAzDMAzDMEzEQ/FgGIZhGIZhGCbioXgwDMMwDMMwDBPxUDwYhmEYhmEYhol4KB4MwzAMwzAMw0Q8FA+GYRiGYRiGYSIeigfDMAzDMAzDMBEPxYNhGIZhGIZhmIiH4sEwDMMwDMMwTMRD8WAYhmEYhmEYJuKheDAMwzAMwzAME/FQPBiGYRiGYRiGiXgoHgzDMAzDMAzDRDwUD4ZhGIZhGIZhIh6KB8MwDMMwDMMwEQ/Fg2EYhmEYhmGYiIfiwTAMwzAMwzBMxEPxYBiGYRiGYRgm4qF4MAzDMAzDMAwT8VA8GIZhGIZhGIaJeCgeDMMwDMMwDMNEPBQPhmEYhmEYhmEiHooHwzAMwzAMwzARD8WDYRiGYRiGYZgIR+T/AXzKpgKdUo+RAAAAAElFTkSuQmCC;" vertex="1" parent="1">
          <mxGeometry x="1270" y="97" width="798" height="548" as="geometry" />
        </mxCell>
        <mxCell id="-d9L37czDho2xnpMNs8O-45" style="edgeStyle=orthogonalEdgeStyle;shape=connector;curved=1;rounded=1;orthogonalLoop=1;jettySize=auto;html=1;exitX=0.5;exitY=1;exitDx=0;exitDy=0;labelBackgroundColor=default;strokeColor=default;fontFamily=Helvetica;fontSize=11;fontColor=default;startArrow=none;startFill=0;endArrow=classic;" edge="1" parent="1" source="-d9L37czDho2xnpMNs8O-44" target="-d9L37czDho2xnpMNs8O-41">
          <mxGeometry relative="1" as="geometry" />
        </mxCell>
        <mxCell id="-d9L37czDho2xnpMNs8O-44" value="分片&lt;br&gt;分片指的是存放相应Topic的Broker。每个分片中会创建出相应数量的分区，即Queue，每个&lt;br&gt;Queue的大小都是相同的" style="whiteSpace=wrap;html=1;aspect=fixed;fontFamily=Helvetica;fontSize=11;fontColor=default;" vertex="1" parent="1">
          <mxGeometry x="1930" y="-200" width="150" height="150" as="geometry" />
        </mxCell>
        <mxCell id="-d9L37czDho2xnpMNs8O-48" style="edgeStyle=orthogonalEdgeStyle;shape=connector;curved=1;rounded=1;orthogonalLoop=1;jettySize=auto;html=1;exitX=0;exitY=0.5;exitDx=0;exitDy=0;labelBackgroundColor=default;strokeColor=default;fontFamily=Helvetica;fontSize=11;fontColor=default;startArrow=none;startFill=0;endArrow=classic;" edge="1" parent="1" source="-d9L37czDho2xnpMNs8O-46" target="-d9L37czDho2xnpMNs8O-47">
          <mxGeometry relative="1" as="geometry" />
        </mxCell>
        <mxCell id="-d9L37czDho2xnpMNs8O-46" value="MessageId/Key&lt;br&gt;" style="rounded=0;whiteSpace=wrap;html=1;fontFamily=Helvetica;fontSize=11;fontColor=default;" vertex="1" parent="1">
          <mxGeometry x="2614" y="420" width="120" height="60" as="geometry" />
        </mxCell>
        <mxCell id="-d9L37czDho2xnpMNs8O-47" value="，MessageId有两个：在生产者send()消息时会自动生成一个MessageId&lt;br&gt;&lt;br&gt;Broker也会自动生成一个MessageId(offsetMsgId)。msgId、offsetMsgId与key都&lt;br/&gt;称为消息标识。" style="whiteSpace=wrap;html=1;aspect=fixed;fontFamily=Helvetica;fontSize=11;fontColor=default;" vertex="1" parent="1">
          <mxGeometry x="2230.5" y="420" width="200" height="200" as="geometry" />
        </mxCell>
        <mxCell id="-d9L37czDho2xnpMNs8O-51" value="快速失败" style="rounded=0;whiteSpace=wrap;html=1;fontFamily=Helvetica;fontSize=11;fontColor=default;" vertex="1" parent="1">
          <mxGeometry x="-620" y="180" width="120" height="60" as="geometry" />
        </mxCell>
        <mxCell id="-d9L37czDho2xnpMNs8O-52" value="低延迟" style="rounded=0;whiteSpace=wrap;html=1;fontFamily=Helvetica;fontSize=11;fontColor=default;" vertex="1" parent="1">
          <mxGeometry x="-620" y="320" width="120" height="60" as="geometry" />
        </mxCell>
        <mxCell id="-d9L37czDho2xnpMNs8O-59" style="edgeStyle=orthogonalEdgeStyle;shape=connector;curved=1;rounded=1;orthogonalLoop=1;jettySize=auto;html=1;exitX=0;exitY=0.25;exitDx=0;exitDy=0;entryX=0.983;entryY=0.4;entryDx=0;entryDy=0;entryPerimeter=0;labelBackgroundColor=default;strokeColor=default;fontFamily=Helvetica;fontSize=11;fontColor=default;startArrow=none;startFill=0;endArrow=classic;" edge="1" parent="1" source="-d9L37czDho2xnpMNs8O-55" target="-d9L37czDho2xnpMNs8O-58">
          <mxGeometry relative="1" as="geometry" />
        </mxCell>
        <mxCell id="-d9L37czDho2xnpMNs8O-61" style="edgeStyle=orthogonalEdgeStyle;shape=connector;curved=1;rounded=1;orthogonalLoop=1;jettySize=auto;html=1;exitX=0;exitY=0.75;exitDx=0;exitDy=0;entryX=0.993;entryY=0.566;entryDx=0;entryDy=0;entryPerimeter=0;labelBackgroundColor=default;strokeColor=default;fontFamily=Helvetica;fontSize=11;fontColor=default;startArrow=none;startFill=0;endArrow=classic;" edge="1" parent="1" source="-d9L37czDho2xnpMNs8O-55" target="-d9L37czDho2xnpMNs8O-60">
          <mxGeometry relative="1" as="geometry" />
        </mxCell>
        <mxCell id="-d9L37czDho2xnpMNs8O-55" value="消费者组&lt;br&gt;&lt;br&gt;是同一类消&lt;br style=&quot;border-color: var(--border-color);&quot;&gt;费者的集合" style="rounded=0;whiteSpace=wrap;html=1;fontFamily=Helvetica;fontSize=11;fontColor=default;" vertex="1" parent="1">
          <mxGeometry x="-620" y="460" width="120" height="60" as="geometry" />
        </mxCell>
        <mxCell id="-d9L37czDho2xnpMNs8O-58" value="负载均衡&lt;br&gt;&lt;br&gt;将一个Topic中的不同的Queue平均分配给同一个Consumer Group的不同的Consumer" style="rounded=0;whiteSpace=wrap;html=1;fontFamily=Helvetica;fontSize=11;fontColor=default;" vertex="1" parent="1">
          <mxGeometry x="-1020" y="350" width="130" height="140" as="geometry" />
        </mxCell>
        <mxCell id="-d9L37czDho2xnpMNs8O-60" value="容错&lt;br&gt;&lt;br&gt;一个Consmer挂了，该Consumer Group中的其它Consumer可&lt;br/&gt;以接着消费原Consumer消费的Queue" style="whiteSpace=wrap;html=1;aspect=fixed;fontFamily=Helvetica;fontSize=11;fontColor=default;" vertex="1" parent="1">
          <mxGeometry x="-1022.5" y="545" width="145" height="145" as="geometry" />
        </mxCell>
        <mxCell id="-d9L37czDho2xnpMNs8O-76" style="edgeStyle=orthogonalEdgeStyle;shape=connector;curved=1;rounded=1;orthogonalLoop=1;jettySize=auto;html=1;exitX=0;exitY=0;exitDx=0;exitDy=0;entryX=0.991;entryY=0.327;entryDx=0;entryDy=0;entryPerimeter=0;labelBackgroundColor=default;strokeColor=default;fontFamily=Helvetica;fontSize=11;fontColor=default;startArrow=none;startFill=0;endArrow=classic;" edge="1" parent="1" source="-d9L37czDho2xnpMNs8O-71" target="-d9L37czDho2xnpMNs8O-73">
          <mxGeometry relative="1" as="geometry" />
        </mxCell>
        <mxCell id="-d9L37czDho2xnpMNs8O-91" style="edgeStyle=orthogonalEdgeStyle;shape=connector;curved=1;rounded=1;orthogonalLoop=1;jettySize=auto;html=1;exitX=0;exitY=1;exitDx=0;exitDy=0;entryX=1;entryY=0.5;entryDx=0;entryDy=0;labelBackgroundColor=default;strokeColor=default;fontFamily=Helvetica;fontSize=11;fontColor=default;startArrow=none;startFill=0;endArrow=classic;" edge="1" parent="1" source="-d9L37czDho2xnpMNs8O-72" target="-d9L37czDho2xnpMNs8O-86">
          <mxGeometry relative="1" as="geometry" />
        </mxCell>
        <mxCell id="-d9L37czDho2xnpMNs8O-93" style="edgeStyle=orthogonalEdgeStyle;shape=connector;curved=1;rounded=1;orthogonalLoop=1;jettySize=auto;html=1;exitX=0;exitY=0;exitDx=0;exitDy=0;entryX=0.99;entryY=0.4;entryDx=0;entryDy=0;entryPerimeter=0;labelBackgroundColor=default;strokeColor=default;fontFamily=Helvetica;fontSize=11;fontColor=default;startArrow=none;startFill=0;endArrow=classic;" edge="1" parent="1" source="-d9L37czDho2xnpMNs8O-72" target="-d9L37czDho2xnpMNs8O-92">
          <mxGeometry relative="1" as="geometry" />
        </mxCell>
        <mxCell id="-d9L37czDho2xnpMNs8O-71" value="Broker管理：接受Broker集群的注册信息并且保存下来作为路由信息的基本数据；提供心跳检测&lt;br style=&quot;border-color: var(--border-color);&quot;&gt;机制，检查Broker是否还存活。&amp;nbsp;" style="ellipse;whiteSpace=wrap;html=1;fontFamily=Helvetica;fontSize=11;fontColor=default;" vertex="1" parent="1">
          <mxGeometry x="-770" y="1060" width="280" height="200" as="geometry" />
        </mxCell>
        <mxCell id="-d9L37czDho2xnpMNs8O-72" value="路由信息管理：每个NameServer中都保存着Broker集群的整个路由信息和用于客户端查询的队列&lt;br style=&quot;border-color: var(--border-color);&quot;&gt;信息。Producer和Conumser通过NameServer可以获取整个Broker集群的路由信息，从而进行消&lt;br style=&quot;border-color: var(--border-color);&quot;&gt;息的投递和消费。" style="ellipse;whiteSpace=wrap;html=1;fontFamily=Helvetica;fontSize=11;fontColor=default;" vertex="1" parent="1">
          <mxGeometry x="-775" y="1480" width="290" height="180" as="geometry" />
        </mxCell>
        <mxCell id="-d9L37czDho2xnpMNs8O-77" style="edgeStyle=orthogonalEdgeStyle;shape=connector;curved=1;rounded=1;orthogonalLoop=1;jettySize=auto;html=1;exitX=0;exitY=0;exitDx=0;exitDy=0;entryX=0.954;entryY=0.258;entryDx=0;entryDy=0;entryPerimeter=0;labelBackgroundColor=default;strokeColor=default;fontFamily=Helvetica;fontSize=11;fontColor=default;startArrow=none;startFill=0;endArrow=classic;" edge="1" parent="1" source="-d9L37czDho2xnpMNs8O-73" target="-d9L37czDho2xnpMNs8O-75">
          <mxGeometry relative="1" as="geometry" />
        </mxCell>
        <mxCell id="-d9L37czDho2xnpMNs8O-85" style="edgeStyle=orthogonalEdgeStyle;shape=connector;curved=1;rounded=1;orthogonalLoop=1;jettySize=auto;html=1;exitX=0.5;exitY=0;exitDx=0;exitDy=0;entryX=0.563;entryY=0.992;entryDx=0;entryDy=0;entryPerimeter=0;labelBackgroundColor=default;strokeColor=default;fontFamily=Helvetica;fontSize=11;fontColor=default;startArrow=none;startFill=0;endArrow=classic;" edge="1" parent="1" source="-d9L37czDho2xnpMNs8O-73" target="-d9L37czDho2xnpMNs8O-79">
          <mxGeometry relative="1" as="geometry" />
        </mxCell>
        <mxCell id="-d9L37czDho2xnpMNs8O-73" value="路由注册" style="ellipse;whiteSpace=wrap;html=1;aspect=fixed;fontFamily=Helvetica;fontSize=11;fontColor=default;" vertex="1" parent="1">
          <mxGeometry x="-1090" y="1000" width="110" height="110" as="geometry" />
        </mxCell>
        <mxCell id="-d9L37czDho2xnpMNs8O-75" value="Broker节点启动时，轮询NameServer列表，与每个NameServer节点建立长连接，发起注册请求。在&lt;br/&gt;NameServer内部维护着⼀个Broker列表，用来动态存储Broker的信息。" style="ellipse;whiteSpace=wrap;html=1;fontFamily=Helvetica;fontSize=11;fontColor=default;" vertex="1" parent="1">
          <mxGeometry x="-1590" y="960" width="260" height="190" as="geometry" />
        </mxCell>
        <mxCell id="-d9L37czDho2xnpMNs8O-83" style="edgeStyle=orthogonalEdgeStyle;shape=connector;curved=1;rounded=1;orthogonalLoop=1;jettySize=auto;html=1;exitX=0;exitY=0;exitDx=0;exitDy=0;entryX=1;entryY=0.5;entryDx=0;entryDy=0;labelBackgroundColor=default;strokeColor=default;fontFamily=Helvetica;fontSize=11;fontColor=default;startArrow=none;startFill=0;endArrow=classic;" edge="1" parent="1" source="-d9L37czDho2xnpMNs8O-79" target="-d9L37czDho2xnpMNs8O-81">
          <mxGeometry relative="1" as="geometry" />
        </mxCell>
        <mxCell id="-d9L37czDho2xnpMNs8O-84" style="edgeStyle=orthogonalEdgeStyle;shape=connector;curved=1;rounded=1;orthogonalLoop=1;jettySize=auto;html=1;exitX=0;exitY=1;exitDx=0;exitDy=0;entryX=1;entryY=0.75;entryDx=0;entryDy=0;labelBackgroundColor=default;strokeColor=default;fontFamily=Helvetica;fontSize=11;fontColor=default;startArrow=none;startFill=0;endArrow=classic;" edge="1" parent="1" source="-d9L37czDho2xnpMNs8O-79" target="-d9L37czDho2xnpMNs8O-82">
          <mxGeometry relative="1" as="geometry" />
        </mxCell>
        <mxCell id="-d9L37czDho2xnpMNs8O-79" value="这种NameServer的无状态方式，有什么优缺点：" style="rhombus;whiteSpace=wrap;html=1;fontFamily=Helvetica;fontSize=11;fontColor=default;" vertex="1" parent="1">
          <mxGeometry x="-1022.5" y="740" width="120" height="120" as="geometry" />
        </mxCell>
        <mxCell id="-d9L37czDho2xnpMNs8O-81" value="优点：NameServer集群搭建简单，扩容简单。" style="rounded=1;whiteSpace=wrap;html=1;fontFamily=Helvetica;fontSize=11;fontColor=default;" vertex="1" parent="1">
          <mxGeometry x="-1370" y="610" width="120" height="60" as="geometry" />
        </mxCell>
        <mxCell id="-d9L37czDho2xnpMNs8O-82" value="缺点：对于Broker，必须明确指出所有NameServer地址。否则未指出的将不会去注册。也正因&lt;br/&gt;为如此，NameServer并不能随便扩容。因为，若Broker不重新配置，新增的NameServer对于&lt;br/&gt;Broker来说是不可见的，其不会向这个NameServer进行注册。&amp;nbsp;" style="rounded=1;whiteSpace=wrap;html=1;fontFamily=Helvetica;fontSize=11;fontColor=default;" vertex="1" parent="1">
          <mxGeometry x="-1430" y="780" width="230" height="130" as="geometry" />
        </mxCell>
        <mxCell id="-d9L37czDho2xnpMNs8O-90" style="edgeStyle=orthogonalEdgeStyle;shape=connector;curved=1;rounded=1;orthogonalLoop=1;jettySize=auto;html=1;exitX=0;exitY=0.5;exitDx=0;exitDy=0;entryX=1;entryY=0.5;entryDx=0;entryDy=0;labelBackgroundColor=default;strokeColor=default;fontFamily=Helvetica;fontSize=11;fontColor=default;startArrow=none;startFill=0;endArrow=classic;" edge="1" parent="1" source="-d9L37czDho2xnpMNs8O-86" target="-d9L37czDho2xnpMNs8O-89">
          <mxGeometry relative="1" as="geometry" />
        </mxCell>
        <mxCell id="-d9L37czDho2xnpMNs8O-86" value="路由剔除" style="ellipse;whiteSpace=wrap;html=1;aspect=fixed;fontFamily=Helvetica;fontSize=11;fontColor=default;" vertex="1" parent="1">
          <mxGeometry x="-1160" y="1490" width="100" height="100" as="geometry" />
        </mxCell>
        <mxCell id="-d9L37czDho2xnpMNs8O-89" value="由于Broker关机、宕机或网络抖动等原因，NameServer没有收到Broker的心跳，NameServer可能会将&lt;br/&gt;其从Broker列表中剔除。" style="ellipse;whiteSpace=wrap;html=1;fontFamily=Helvetica;fontSize=11;fontColor=default;" vertex="1" parent="1">
          <mxGeometry x="-1700" y="1500" width="290" height="80" as="geometry" />
        </mxCell>
        <mxCell id="-d9L37czDho2xnpMNs8O-95" style="edgeStyle=orthogonalEdgeStyle;shape=connector;curved=1;rounded=1;orthogonalLoop=1;jettySize=auto;html=1;exitX=0;exitY=0.5;exitDx=0;exitDy=0;labelBackgroundColor=default;strokeColor=default;fontFamily=Helvetica;fontSize=11;fontColor=default;startArrow=none;startFill=0;endArrow=classic;" edge="1" parent="1" source="-d9L37czDho2xnpMNs8O-92" target="-d9L37czDho2xnpMNs8O-94">
          <mxGeometry relative="1" as="geometry" />
        </mxCell>
        <mxCell id="-d9L37czDho2xnpMNs8O-92" value="路由发现" style="ellipse;whiteSpace=wrap;html=1;aspect=fixed;fontFamily=Helvetica;fontSize=11;fontColor=default;" vertex="1" parent="1">
          <mxGeometry x="-1140" y="1150" width="100" height="100" as="geometry" />
        </mxCell>
        <mxCell id="-d9L37czDho2xnpMNs8O-99" style="edgeStyle=orthogonalEdgeStyle;shape=connector;curved=1;rounded=1;orthogonalLoop=1;jettySize=auto;html=1;exitX=0;exitY=0;exitDx=0;exitDy=0;entryX=1.021;entryY=0.45;entryDx=0;entryDy=0;entryPerimeter=0;labelBackgroundColor=default;strokeColor=default;fontFamily=Helvetica;fontSize=11;fontColor=default;startArrow=none;startFill=0;endArrow=classic;" edge="1" parent="1" source="-d9L37czDho2xnpMNs8O-94" target="-d9L37czDho2xnpMNs8O-98">
          <mxGeometry relative="1" as="geometry" />
        </mxCell>
        <mxCell id="-d9L37czDho2xnpMNs8O-101" style="edgeStyle=orthogonalEdgeStyle;shape=connector;curved=1;rounded=1;orthogonalLoop=1;jettySize=auto;html=1;exitX=0;exitY=0.5;exitDx=0;exitDy=0;entryX=1;entryY=0.5;entryDx=0;entryDy=0;labelBackgroundColor=default;strokeColor=default;fontFamily=Helvetica;fontSize=11;fontColor=default;startArrow=none;startFill=0;endArrow=classic;" edge="1" parent="1" source="-d9L37czDho2xnpMNs8O-94" target="-d9L37czDho2xnpMNs8O-100">
          <mxGeometry relative="1" as="geometry" />
        </mxCell>
        <mxCell id="-d9L37czDho2xnpMNs8O-103" style="edgeStyle=orthogonalEdgeStyle;shape=connector;curved=1;rounded=1;orthogonalLoop=1;jettySize=auto;html=1;exitX=0;exitY=1;exitDx=0;exitDy=0;entryX=0.998;entryY=0.552;entryDx=0;entryDy=0;entryPerimeter=0;labelBackgroundColor=default;strokeColor=default;fontFamily=Helvetica;fontSize=11;fontColor=default;startArrow=none;startFill=0;endArrow=classic;" edge="1" parent="1" source="-d9L37czDho2xnpMNs8O-94" target="-d9L37czDho2xnpMNs8O-102">
          <mxGeometry relative="1" as="geometry" />
        </mxCell>
        <mxCell id="-d9L37czDho2xnpMNs8O-94" value="RocketMQ的路由发现采用的是Pull模型。当Topic路由信息出现变化时，NameServer不会主动推送给&lt;br/&gt;客户端，而是客户端定时拉取主题最新的路由。默认客户端每30秒会拉取一次最新的路由。" style="ellipse;whiteSpace=wrap;html=1;fontFamily=Helvetica;fontSize=11;fontColor=default;" vertex="1" parent="1">
          <mxGeometry x="-1640" y="1190" width="330" height="100" as="geometry" />
        </mxCell>
        <mxCell id="-d9L37czDho2xnpMNs8O-98" value="Push模型：推送模型。其实时性较好，是一个“发布-订阅”模型，需要维护一个长连接。而&lt;br&gt;长连接的维护是需要资源成本的。该模型适合于的场景：&lt;br&gt;&lt;br&gt;1.实时性要求较高&lt;br/&gt;Client数量不多，2.Server数据变化较频繁&amp;nbsp;" style="ellipse;whiteSpace=wrap;html=1;aspect=fixed;fontFamily=Helvetica;fontSize=11;fontColor=default;" vertex="1" parent="1">
          <mxGeometry x="-2130" y="989" width="180" height="180" as="geometry" />
        </mxCell>
        <mxCell id="-d9L37czDho2xnpMNs8O-100" value="Pull模型&lt;br&gt;客户端定时拉取&lt;br&gt;实时性差" style="ellipse;whiteSpace=wrap;html=1;aspect=fixed;fontFamily=Helvetica;fontSize=11;fontColor=default;" vertex="1" parent="1">
          <mxGeometry x="-2152" y="1230" width="170" height="170" as="geometry" />
        </mxCell>
        <mxCell id="-d9L37czDho2xnpMNs8O-102" value="Long Polling模型&lt;br&gt;传统的HTTP请求-响应模型是客户端发送请求到服务器，服务器处理请求并返回响应。但在长轮询模型中，客户端发送一个HTTP请求到服务器，服务器并不立即响应，而是暂时保持连接，等待有数据或事件发生时才会响应。&lt;br&gt;&lt;br&gt;&lt;br&gt;比如：二维码" style="ellipse;whiteSpace=wrap;html=1;aspect=fixed;fontFamily=Helvetica;fontSize=11;fontColor=default;" vertex="1" parent="1">
          <mxGeometry x="-2160" y="1460" width="200" height="200" as="geometry" />
        </mxCell>
        <mxCell id="-d9L37czDho2xnpMNs8O-106" style="edgeStyle=orthogonalEdgeStyle;shape=connector;curved=1;rounded=1;orthogonalLoop=1;jettySize=auto;html=1;exitX=0;exitY=0;exitDx=0;exitDy=0;entryX=0.978;entryY=0.315;entryDx=0;entryDy=0;entryPerimeter=0;labelBackgroundColor=default;strokeColor=default;fontFamily=Helvetica;fontSize=11;fontColor=default;startArrow=none;startFill=0;endArrow=classic;" edge="1" parent="1" source="-d9L37czDho2xnpMNs8O-104" target="-d9L37czDho2xnpMNs8O-105">
          <mxGeometry relative="1" as="geometry" />
        </mxCell>
        <mxCell id="-d9L37czDho2xnpMNs8O-108" style="edgeStyle=orthogonalEdgeStyle;shape=connector;curved=1;rounded=1;orthogonalLoop=1;jettySize=auto;html=1;exitX=0;exitY=1;exitDx=0;exitDy=0;entryX=1;entryY=0.5;entryDx=0;entryDy=0;labelBackgroundColor=default;strokeColor=default;fontFamily=Helvetica;fontSize=11;fontColor=default;startArrow=none;startFill=0;endArrow=classic;" edge="1" parent="1" source="-d9L37czDho2xnpMNs8O-104" target="-d9L37czDho2xnpMNs8O-107">
          <mxGeometry relative="1" as="geometry" />
        </mxCell>
        <mxCell id="-d9L37czDho2xnpMNs8O-104" value="路由" style="ellipse;whiteSpace=wrap;html=1;fontFamily=Helvetica;fontSize=11;fontColor=default;" vertex="1" parent="1">
          <mxGeometry x="-690" y="1970" width="120" height="80" as="geometry" />
        </mxCell>
        <mxCell id="-d9L37czDho2xnpMNs8O-105" value="Topic路由：&lt;span style=&quot;color: rgb(55, 65, 81); font-family: Söhne, ui-sans-serif, system-ui, -apple-system, &amp;quot;Segoe UI&amp;quot;, Roboto, Ubuntu, Cantarell, &amp;quot;Noto Sans&amp;quot;, sans-serif, &amp;quot;Helvetica Neue&amp;quot;, Arial, &amp;quot;Apple Color Emoji&amp;quot;, &amp;quot;Segoe UI Emoji&amp;quot;, &amp;quot;Segoe UI Symbol&amp;quot;, &amp;quot;Noto Color Emoji&amp;quot;; font-size: 16px; text-align: left; background-color: rgb(247, 247, 248);&quot;&gt; 在消息队列中，消息通常按照Topic进行分类和组织。生产者发布的消息会指定一个特定的Topic，而消费者可以根据订阅的Topic来接收感兴趣的消息。Topic路由就是将生产者发布的消息路由到相应的Topic队列中。&lt;/span&gt;" style="ellipse;whiteSpace=wrap;html=1;aspect=fixed;fontFamily=Helvetica;fontSize=11;fontColor=default;" vertex="1" parent="1">
          <mxGeometry x="-1160" y="1660" width="290" height="290" as="geometry" />
        </mxCell>
        <mxCell id="-d9L37czDho2xnpMNs8O-107" value="消费者路由：&lt;span style=&quot;color: rgb(55, 65, 81); font-family: Söhne, ui-sans-serif, system-ui, -apple-system, &amp;quot;Segoe UI&amp;quot;, Roboto, Ubuntu, Cantarell, &amp;quot;Noto Sans&amp;quot;, sans-serif, &amp;quot;Helvetica Neue&amp;quot;, Arial, &amp;quot;Apple Color Emoji&amp;quot;, &amp;quot;Segoe UI Emoji&amp;quot;, &amp;quot;Segoe UI Symbol&amp;quot;, &amp;quot;Noto Color Emoji&amp;quot;; font-size: 16px; text-align: left; background-color: rgb(247, 247, 248);&quot;&gt; 当消费者订阅了某个Topic后，消息队列系统需要将该Topic的消息传递给相应的消费者。消费者路由决定了消息从Topic队列如何分发给不同的消费者，以便让每个消费者都能处理属于自己的一部分消息。&lt;/span&gt;" style="ellipse;whiteSpace=wrap;html=1;aspect=fixed;fontFamily=Helvetica;fontSize=11;fontColor=default;" vertex="1" parent="1">
          <mxGeometry x="-1180" y="2010" width="320" height="320" as="geometry" />
        </mxCell>
        <mxCell id="-d9L37czDho2xnpMNs8O-110" value="&amp;nbsp;Broker&lt;br&gt;&lt;br&gt;Broker充当着消息中转角色，负责存储消息、转发消息。Broker在RocketMQ系统中负责接收并存储从&lt;br/&gt;生产者发送来的消息，同时为消费者的拉取请求作准备。Broker同时也存储着消息相关的元数据，包括&lt;br/&gt;消费者组消费进度偏移offset、主题、队列等。" style="rounded=0;whiteSpace=wrap;html=1;fontFamily=Helvetica;fontSize=11;fontColor=default;" vertex="1" parent="1">
          <mxGeometry x="-420" y="2410" width="230" height="190" as="geometry" />
        </mxCell>
      </root>
    </mxGraphModel>
  </diagram>
</mxfile>
